<svg width="114" height="111" viewBox="0 0 114 111" fill="none" xmlns="http://www.w3.org/2000/svg">
<g clip-path="url(#clip0)">
<path d="M62.6065 57.0001H47.6557C45.0767 57.0001 42.9836 54.907 42.9836 52.3279V39.246C42.9836 36.667 45.0767 34.5739 47.6557 34.5739H62.6065C65.1856 34.5739 67.2787 36.667 67.2787 39.246V52.3279C67.2787 54.907 65.1856 57.0001 62.6065 57.0001Z" fill="#4DB6AC"/>
<path d="M62.6066 57.9345H47.6557C44.5721 57.9345 42.0492 55.4115 42.0492 52.3279V39.246C42.0492 36.1624 44.5721 33.6394 47.6557 33.6394H62.6066C65.6902 33.6394 68.2131 36.1624 68.2131 39.246V52.3279C68.2131 55.4115 65.6902 57.9345 62.6066 57.9345ZM47.6557 35.5083C45.6 35.5083 43.918 37.1902 43.918 39.246V52.3279C43.918 54.3837 45.6 56.0656 47.6557 56.0656H62.6066C64.6623 56.0656 66.3443 54.3837 66.3443 52.3279V39.246C66.3443 37.1902 64.6623 35.5083 62.6066 35.5083H47.6557Z" fill="#28313B"/>
<path d="M37.3771 109.328H13.082C12.0541 109.328 11.2131 108.487 11.2131 107.459V99.9836C11.2131 98.9557 12.0541 98.1147 13.082 98.1147H37.3771C38.4049 98.1147 39.2459 98.9557 39.2459 99.9836V107.459C39.2459 108.487 38.4049 109.328 37.3771 109.328Z" fill="#FFD740"/>
<path d="M37.377 110.262H13.082C11.5308 110.262 10.2787 109.01 10.2787 107.459V99.9836C10.2787 98.4324 11.5308 97.1803 13.082 97.1803H37.377C38.9282 97.1803 40.1803 98.4324 40.1803 99.9836V107.459C40.1803 109.01 38.9282 110.262 37.377 110.262ZM13.082 99.0492C12.5587 99.0492 12.1475 99.4603 12.1475 99.9836V107.459C12.1475 107.982 12.5587 108.393 13.082 108.393H37.377C37.9003 108.393 38.3115 107.982 38.3115 107.459V99.9836C38.3115 99.4603 37.9003 99.0492 37.377 99.0492H13.082Z" fill="#28313B"/>
<path d="M33.6393 104.656H25.2295C24.7062 104.656 24.2951 104.245 24.2951 103.721C24.2951 103.198 24.7062 102.787 25.2295 102.787H33.6393C34.1626 102.787 34.5738 103.198 34.5738 103.721C34.5738 104.245 34.1626 104.656 33.6393 104.656Z" fill="#28313B"/>
<path d="M37.3771 98.1147H13.082C12.0541 98.1147 11.2131 97.2737 11.2131 96.2459V88.7705C11.2131 87.7426 12.0541 86.9016 13.082 86.9016H37.3771C38.4049 86.9016 39.2459 87.7426 39.2459 88.7705V96.2459C39.2459 97.2737 38.4049 98.1147 37.3771 98.1147Z" fill="#FFD740"/>
<path d="M37.377 99.0491H13.082C11.5308 99.0491 10.2787 97.797 10.2787 96.2458V88.7704C10.2787 87.2193 11.5308 85.9672 13.082 85.9672H37.377C38.9282 85.9672 40.1803 87.2193 40.1803 88.7704V96.2458C40.1803 97.797 38.9282 99.0491 37.377 99.0491ZM13.082 87.836C12.5587 87.836 12.1475 88.2472 12.1475 88.7704V96.2458C12.1475 96.7691 12.5587 97.1803 13.082 97.1803H37.377C37.9003 97.1803 38.3115 96.7691 38.3115 96.2458V88.7704C38.3115 88.2472 37.9003 87.836 37.377 87.836H13.082Z" fill="#28313B"/>
<path d="M33.6393 93.4426H25.2295C24.7062 93.4426 24.2951 93.0314 24.2951 92.5082C24.2951 91.9849 24.7062 91.5737 25.2295 91.5737H33.6393C34.1626 91.5737 34.5738 91.9849 34.5738 92.5082C34.5738 93.0314 34.1626 93.4426 33.6393 93.4426Z" fill="#28313B"/>
<path d="M37.3771 86.9017H13.082C12.0541 86.9017 11.2131 86.0607 11.2131 85.0329V77.5575C11.2131 76.5296 12.0541 75.6886 13.082 75.6886H37.3771C38.4049 75.6886 39.2459 76.5296 39.2459 77.5575V85.0329C39.2459 86.0607 38.4049 86.9017 37.3771 86.9017Z" fill="#FFD740"/>
<path d="M37.377 87.8361H13.082C11.5308 87.8361 10.2787 86.584 10.2787 85.0328V77.5574C10.2787 76.0063 11.5308 74.7542 13.082 74.7542H37.377C38.9282 74.7542 40.1803 76.0063 40.1803 77.5574V85.0328C40.1803 86.584 38.9282 87.8361 37.377 87.8361ZM13.082 76.623C12.5587 76.623 12.1475 77.0341 12.1475 77.5574V85.0328C12.1475 85.5561 12.5587 85.9673 13.082 85.9673H37.377C37.9003 85.9673 38.3115 85.5561 38.3115 85.0328V77.5574C38.3115 77.0341 37.9003 76.623 37.377 76.623H13.082Z" fill="#28313B"/>
<path d="M33.6393 82.2296H25.2295C24.7062 82.2296 24.2951 81.8184 24.2951 81.2951C24.2951 80.7719 24.7062 80.3607 25.2295 80.3607H33.6393C34.1626 80.3607 34.5738 80.7719 34.5738 81.2951C34.5738 81.8184 34.1626 82.2296 33.6393 82.2296Z" fill="#28313B"/>
<path d="M78.4918 48.5902H71.0164C70.4931 48.5902 70.082 48.179 70.082 47.6557C70.082 47.1325 70.4931 46.7213 71.0164 46.7213H78.4918C85.7056 46.7213 91.5738 40.8531 91.5738 33.6393C91.5738 26.4256 85.7056 20.5574 78.4918 20.5574H73.8197C73.2964 20.5574 72.8852 20.1462 72.8852 19.623C72.8852 9.83016 64.9239 1.86885 55.1311 1.86885C45.3384 1.86885 37.377 9.83016 37.377 19.623C37.377 20.1462 36.9659 20.5574 36.4426 20.5574H31.7705C24.5567 20.5574 18.6885 26.4256 18.6885 33.6393C18.6885 40.8531 24.5567 46.7213 31.7705 46.7213H39.2459C39.7692 46.7213 40.1803 47.1325 40.1803 47.6557C40.1803 48.179 39.7692 48.5902 39.2459 48.5902H31.7705C23.5289 48.5902 16.8197 41.881 16.8197 33.6393C16.8197 25.3977 23.5289 18.6885 31.7705 18.6885H35.5269C36.0128 8.29771 44.6282 0 55.1311 0C65.6341 0 74.2495 8.29771 74.7354 18.6885H78.4918C86.7334 18.6885 93.4426 25.3977 93.4426 33.6393C93.4426 41.881 86.7334 48.5902 78.4918 48.5902Z" fill="#28313B"/>
<path d="M63.541 35.5082H46.7213C46.198 35.5082 45.7869 35.0971 45.7869 34.5738V31.7705C45.7869 26.6125 49.9731 22.4263 55.1311 22.4263C60.2892 22.4263 64.4754 26.6125 64.4754 31.7705V34.5738C64.4754 35.0971 64.0643 35.5082 63.541 35.5082ZM47.6557 33.6394H62.6066V31.7705C62.6066 27.6404 59.2613 24.2951 55.1311 24.2951C51.001 24.2951 47.6557 27.6404 47.6557 31.7705V33.6394Z" fill="#28313B"/>
<path d="M105.59 104.656H70.082C68.5308 104.656 67.2787 103.404 67.2787 101.853V77.5574C67.2787 76.0063 68.5308 74.7542 70.082 74.7542H105.59C107.141 74.7542 108.393 76.0063 108.393 77.5574V101.853C108.393 103.404 107.141 104.656 105.59 104.656ZM70.082 76.623C69.5587 76.623 69.1475 77.0341 69.1475 77.5574V101.853C69.1475 102.376 69.5587 102.787 70.082 102.787H105.59C106.113 102.787 106.525 102.376 106.525 101.853V77.5574C106.525 77.0341 106.113 76.623 105.59 76.623H70.082Z" fill="#28313B"/>
<path d="M111.197 110.262H64.4754C62.9243 110.262 61.6721 109.01 61.6721 107.459V105.59C61.6721 104.039 62.9243 102.787 64.4754 102.787H111.197C112.748 102.787 114 104.039 114 105.59V107.459C114 109.01 112.748 110.262 111.197 110.262ZM64.4754 104.656C63.9521 104.656 63.541 105.067 63.541 105.59V107.459C63.541 107.982 63.9521 108.393 64.4754 108.393H111.197C111.72 108.393 112.131 107.982 112.131 107.459V105.59C112.131 105.067 111.72 104.656 111.197 104.656H64.4754Z" fill="#28313B"/>
<path d="M107.459 80.3607H68.2131V99.0492H107.459V80.3607Z" fill="#40C4FF"/>
<path d="M107.459 99.9836H68.2131C67.6898 99.9836 67.2787 99.5725 67.2787 99.0492V80.3607C67.2787 79.8374 67.6898 79.4263 68.2131 79.4263H107.459C107.982 79.4263 108.393 79.8374 108.393 80.3607V99.0492C108.393 99.5725 107.982 99.9836 107.459 99.9836ZM69.1475 98.1148H106.525V81.2951H69.1475V98.1148Z" fill="#28313B"/>
<path d="M52.8137 51.6738C52.5708 51.6738 52.3278 51.5804 52.1596 51.3935L46.8708 46.1046C46.497 45.7309 46.497 45.1515 46.8708 44.7777C47.2445 44.404 47.8239 44.404 48.1976 44.7777L52.8324 49.4125L62.0832 40.1617C62.457 39.7879 63.0363 39.7879 63.4101 40.1617C63.7839 40.5354 63.7839 41.1148 63.4101 41.4886L53.5052 51.3935C53.2996 51.5804 53.0753 51.6738 52.8137 51.6738Z" fill="#28313B"/>
<path d="M25.2295 57C24.7062 57 24.2951 56.5889 24.2951 56.0656V54.1968C24.2951 53.6735 24.7062 53.2623 25.2295 53.2623C25.7528 53.2623 26.1639 53.6735 26.1639 54.1968V56.0656C26.1639 56.5889 25.7528 57 25.2295 57Z" fill="#28313B"/>
<path d="M25.2295 71.0164C24.7062 71.0164 24.2951 70.6053 24.2951 70.082V59.8033C24.2951 59.28 24.7062 58.8689 25.2295 58.8689C25.7528 58.8689 26.1639 59.28 26.1639 59.8033V70.082C26.1639 70.6053 25.7528 71.0164 25.2295 71.0164Z" fill="#28313B"/>
<path d="M80.3607 57C79.8374 57 79.4262 56.5889 79.4262 56.0656V54.1968C79.4262 53.6735 79.8374 53.2623 80.3607 53.2623C80.8839 53.2623 81.2951 53.6735 81.2951 54.1968V56.0656C81.2951 56.5889 80.8839 57 80.3607 57Z" fill="#28313B"/>
<path d="M80.3607 71.0164C79.8374 71.0164 79.4262 70.6053 79.4262 70.082V59.8033C79.4262 59.28 79.8374 58.8689 80.3607 58.8689C80.8839 58.8689 81.2951 59.28 81.2951 59.8033V70.082C81.2951 70.6053 80.8839 71.0164 80.3607 71.0164Z" fill="#28313B"/>
<path d="M47.6557 93.4426H45.7869C45.2636 93.4426 44.8524 93.0314 44.8524 92.5082C44.8524 91.9849 45.2636 91.5737 45.7869 91.5737H47.6557C48.179 91.5737 48.5902 91.9849 48.5902 92.5082C48.5902 93.0314 48.179 93.4426 47.6557 93.4426Z" fill="#28313B"/>
<path d="M61.6721 93.4426H51.3934C50.8702 93.4426 50.459 93.0314 50.459 92.5082C50.459 91.9849 50.8702 91.5737 51.3934 91.5737H61.6721C62.1954 91.5737 62.6066 91.9849 62.6066 92.5082C62.6066 93.0314 62.1954 93.4426 61.6721 93.4426Z" fill="#28313B"/>
</g>
<defs>
<clipPath id="clip0">
<rect width="114" height="110.262" fill="white"/>
</clipPath>
</defs>
</svg>
