<svg width="155" height="135" viewBox="0 0 155 135" fill="none" xmlns="http://www.w3.org/2000/svg">
<rect opacity="0.2" x="34.9194" width="120" height="119" rx="26" transform="rotate(1.40574 34.9194 0)" fill="#FFD740"/>
<path d="M46.6843 62.2166H10.736C10.3166 62.2166 9.98706 61.8871 9.98706 61.4677C9.98706 61.0483 10.3166 60.7188 10.736 60.7188H46.6843C47.1037 60.7188 47.4332 61.0483 47.4332 61.4677C47.4332 61.8871 47.1037 62.2166 46.6843 62.2166Z" fill="#263238"/>
<path d="M46.6843 69.7059H10.736C10.3166 69.7059 9.98706 69.3763 9.98706 68.9569C9.98706 68.5375 10.3166 68.208 10.736 68.208H46.6843C47.1037 68.208 47.4332 68.5375 47.4332 68.9569C47.4332 69.3763 47.1037 69.7059 46.6843 69.7059Z" fill="#263238"/>
<path d="M46.6843 77.1951H10.736C10.3166 77.1951 9.98706 76.8656 9.98706 76.4462C9.98706 76.0268 10.3166 75.6973 10.736 75.6973H46.6843C47.1037 75.6973 47.4332 76.0268 47.4332 76.4462C47.4332 76.8656 47.1037 77.1951 46.6843 77.1951Z" fill="#263238"/>
<path d="M46.6843 84.6844H10.736C10.3166 84.6844 9.98706 84.3548 9.98706 83.9354C9.98706 83.5161 10.3166 83.1865 10.736 83.1865H46.6843C47.1037 83.1865 47.4332 83.5161 47.4332 83.9354C47.4332 84.3548 47.1037 84.6844 46.6843 84.6844Z" fill="#263238"/>
<path d="M46.6843 92.1735H10.736C10.3166 92.1735 9.98706 91.844 9.98706 91.4246C9.98706 91.0052 10.3166 90.6757 10.736 90.6757H46.6843C47.1037 90.6757 47.4332 91.0052 47.4332 91.4246C47.4332 91.844 47.1037 92.1735 46.6843 92.1735Z" fill="#263238"/>
<path d="M24.2166 99.6628H10.736C10.3166 99.6628 9.98706 99.3332 9.98706 98.9138C9.98706 98.4944 10.3166 98.1649 10.736 98.1649H24.2166C24.636 98.1649 24.9655 98.4944 24.9655 98.9138C24.9655 99.3332 24.636 99.6628 24.2166 99.6628Z" fill="#263238"/>
<path d="M5.49354 114.791H51.9268C54.4811 114.791 56.5703 112.702 56.5703 110.148V53.2295C56.5703 50.6752 54.4811 48.586 51.9268 48.586H43.6886C43.1864 48.586 42.7897 48.9826 42.7897 49.4849C42.7897 49.9871 43.1864 50.3838 43.6886 50.3838H51.9268C53.4916 50.3838 54.7725 51.6647 54.7725 53.2295V110.148C54.7725 111.712 53.4916 112.993 51.9268 112.993H5.49354C3.92875 112.993 2.64785 111.712 2.64785 110.148V53.2295C2.64785 51.6647 3.92875 50.3838 5.49354 50.3838H13.7317C14.2339 50.3838 14.6306 49.9871 14.6306 49.4849C14.6306 48.9826 14.2339 48.586 13.7317 48.586H5.49354C2.93925 48.586 0.85 50.6752 0.85 53.2295V110.148C0.85 112.702 2.93925 114.791 5.49354 114.791Z" fill="#263238" stroke="#28313B" stroke-width="0.3"/>
<path d="M15.8285 51.7317C15.8285 53.0578 16.8992 54.1285 18.2253 54.1285H39.1951C40.5212 54.1285 41.5919 53.0578 41.5919 51.7317V47.2382C41.5919 45.9121 40.5212 44.8414 39.1951 44.8414H35.5385C35.096 41.4607 32.2018 38.85 28.7102 38.85C25.2186 38.85 22.3244 41.4607 21.8819 44.8414H18.2253C16.8992 44.8414 15.8285 45.9121 15.8285 47.2382V51.7317ZM17.6264 47.2382C17.6264 46.9016 17.8887 46.6392 18.2253 46.6392H22.7188C23.2211 46.6392 23.6177 46.2426 23.6177 45.7403C23.6177 42.9323 25.9022 40.6478 28.7102 40.6478C31.5182 40.6478 33.8027 42.9323 33.8027 45.7403C33.8027 46.2426 34.1994 46.6392 34.7016 46.6392H39.1951C39.5317 46.6392 39.7941 46.9016 39.7941 47.2382V51.7317C39.7941 52.0683 39.5317 52.3306 39.1951 52.3306H18.2253C17.8887 52.3306 17.6264 52.0683 17.6264 51.7317V47.2382Z" fill="#263238" stroke="#28313B" stroke-width="0.3"/>
<path d="M28.7102 48.736C27.0625 48.736 25.7145 47.388 25.7145 45.7403C25.7145 44.0927 27.0625 42.7446 28.7102 42.7446C30.3578 42.7446 31.7059 44.0927 31.7059 45.7403C31.7059 47.388 30.3578 48.736 28.7102 48.736ZM28.7102 44.2425C27.8864 44.2425 27.2123 44.9165 27.2123 45.7403C27.2123 46.5641 27.8864 47.2382 28.7102 47.2382C29.534 47.2382 30.208 46.5641 30.208 45.7403C30.208 44.9165 29.534 44.2425 28.7102 44.2425Z" fill="#263238"/>
<path d="M26.3285 133.364V72.7015C26.3285 70.6345 28.0061 68.9569 30.0731 68.9569H76.5064C78.5734 68.9569 80.251 70.6345 80.251 72.7015V133.364" fill="white"/>
<path d="M79.3521 133.364C79.3521 133.867 79.7488 134.263 80.251 134.263C80.7532 134.263 81.1499 133.867 81.1499 133.364V72.7015C81.1499 70.1473 79.0607 68.058 76.5064 68.058H30.0731C27.5188 68.058 25.4296 70.1473 25.4296 72.7015V133.364C25.4296 133.867 25.8263 134.263 26.3285 134.263C26.8308 134.263 27.2274 133.867 27.2274 133.364V72.7015C27.2274 71.1368 28.5083 69.8559 30.0731 69.8559H76.5064C78.0712 69.8559 79.3521 71.1368 79.3521 72.7015V133.364Z" fill="#263238" stroke="#28313B" stroke-width="0.3"/>
<path d="M44.8718 110.897H38.8804C38.461 110.897 38.1315 110.567 38.1315 110.148V102.658C38.1315 102.239 38.461 101.91 38.8804 101.91H44.8718C45.2912 101.91 45.6207 102.239 45.6207 102.658V110.148C45.6207 110.567 45.2762 110.897 44.8718 110.897ZM39.6293 109.399H44.1229V103.407H39.6293V109.399Z" fill="#263238"/>
<path d="M56.48 98.1649H50.4886V110.148H56.48V98.1649Z" fill="#40C4FF"/>
<path d="M56.4801 110.897H50.4887C50.0693 110.897 49.7397 110.567 49.7397 110.148V98.1649C49.7397 97.7455 50.0693 97.416 50.4887 97.416H56.4801C56.8995 97.416 57.229 97.7455 57.229 98.1649V110.148C57.229 110.567 56.8995 110.897 56.4801 110.897ZM51.2376 109.399H55.7311V98.9139H51.2376V109.399Z" fill="#263238"/>
<path d="M67.7139 89.9268H61.7225V110.148H67.7139V89.9268Z" fill="#FF5252"/>
<path d="M67.7139 110.897H61.7226C61.3032 110.897 60.9736 110.567 60.9736 110.148V89.9268C60.9736 89.5074 61.3032 89.1779 61.7226 89.1779H67.7139C68.1333 89.1779 68.4629 89.5074 68.4629 89.9268V110.148C68.4629 110.567 68.1333 110.897 67.7139 110.897ZM62.4715 109.399H66.965V90.6757H62.4715V109.399Z" fill="#263238"/>
<path d="M68.4629 76.4462H38.506V82.4376H68.4629V76.4462Z" fill="#4DB6AC"/>
<path d="M68.4629 83.1865H38.506C38.0866 83.1865 37.7571 82.857 37.7571 82.4376V76.4462C37.7571 76.0268 38.0866 75.6973 38.506 75.6973H68.4629C68.8823 75.6973 69.2119 76.0268 69.2119 76.4462V82.4376C69.2119 82.857 68.8823 83.1865 68.4629 83.1865ZM39.2549 81.6887H67.714V77.1951H39.2549V81.6887Z" fill="#263238"/>
<path d="M68.4629 119.884H38.506C38.0866 119.884 37.7571 119.554 37.7571 119.135C37.7571 118.715 38.0866 118.386 38.506 118.386H68.4629C68.8823 118.386 69.2119 118.715 69.2119 119.135C69.2119 119.554 68.8823 119.884 68.4629 119.884Z" fill="#263238"/>
<path d="M68.4629 124.377H38.506C38.0866 124.377 37.7571 124.048 37.7571 123.628C37.7571 123.209 38.0866 122.879 38.506 122.879H68.4629C68.8823 122.879 69.2119 123.209 69.2119 123.628C69.2119 124.048 68.8823 124.377 68.4629 124.377Z" fill="#263238"/>
<path d="M53.4845 128.871H38.506C38.0866 128.871 37.7571 128.541 37.7571 128.122C37.7571 127.702 38.0866 127.373 38.506 127.373H53.4845C53.9039 127.373 54.2334 127.702 54.2334 128.122C54.2334 128.541 53.9039 128.871 53.4845 128.871Z" fill="#263238"/>
</svg>
