<svg width="146" height="121" viewBox="0 0 146 121" fill="none" xmlns="http://www.w3.org/2000/svg">
<rect opacity="0.1" x="26" width="120" height="119" rx="26" fill="#5BAB5E"/>
<path d="M64.3472 119.861H30.1805C29.0417 119.861 27.9028 119.747 26.8778 119.406L25.5111 119.064C21.6389 118.039 18.3361 115.419 16.5139 111.889L16.2861 111.319C15.2611 109.497 14.8055 107.333 14.8055 105.169V105.169C14.8055 93.2111 18.3361 81.4806 25.0555 71.4584L26.7639 68.8389C29.3833 64.9667 33.1417 62.0056 37.5833 60.525V60.525H55.8055V60.525C60.2472 62.0056 64.0055 64.9667 66.625 68.8389L68.3333 71.4584C74.9389 81.4806 78.5833 93.2111 78.5833 105.169V105.967C78.5833 107.675 78.2417 109.269 77.6722 110.75V110.75C76.0778 114.964 72.5472 118.153 68.1055 119.292L67.65 119.406C66.625 119.747 65.4861 119.861 64.3472 119.861Z" fill="white"/>
<rect x="63.7778" y="87.9722" width="15.9444" height="4.55556" fill="#CE7B34"/>
<path fill-rule="evenodd" clip-rule="evenodd" d="M63.7778 93.6667H79.7222C80.4056 93.6667 80.8611 93.2112 80.8611 92.5278V87.9723C80.8611 87.2889 80.4056 86.8334 79.7222 86.8334H63.7778C63.0945 86.8334 62.6389 87.2889 62.6389 87.9723V92.5278C62.6389 93.2112 63.0945 93.6667 63.7778 93.6667ZM78.5834 91.3889H64.9167V89.1112H78.5834V91.3889Z" fill="#28313B"/>
<rect x="67.1945" y="106.194" width="15.9444" height="4.55556" fill="#CDFFD0"/>
<path fill-rule="evenodd" clip-rule="evenodd" d="M67.1944 111.889H83.1389C83.8222 111.889 84.2778 111.433 84.2778 110.75V106.194C84.2778 105.511 83.8222 105.056 83.1389 105.056H67.1944C66.5111 105.056 66.0555 105.511 66.0555 106.194V110.75C66.0555 111.433 66.5111 111.889 67.1944 111.889ZM82 109.611H68.3333V107.333H82V109.611Z" fill="#28313B"/>
<rect x="67.1945" y="101.639" width="15.9444" height="4.55556" fill="#CDFFD0"/>
<path fill-rule="evenodd" clip-rule="evenodd" d="M67.1944 107.333H83.1389C83.8222 107.333 84.2778 106.878 84.2778 106.194V101.639C84.2778 100.956 83.8222 100.5 83.1389 100.5H67.1944C66.5111 100.5 66.0555 100.956 66.0555 101.639V106.194C66.0555 106.878 66.5111 107.333 67.1944 107.333ZM82 105.056H68.3333V102.778H82V105.056Z" fill="#28313B"/>
<rect x="67.1945" y="115.306" width="15.9444" height="4.55556" fill="#CDFFD0"/>
<path fill-rule="evenodd" clip-rule="evenodd" d="M67.1944 121H83.1389C83.8222 121 84.2778 120.544 84.2778 119.861V115.306C84.2778 114.622 83.8222 114.167 83.1389 114.167H67.1944C66.5111 114.167 66.0555 114.622 66.0555 115.306V119.861C66.0555 120.544 66.5111 121 67.1944 121ZM82 118.722H68.3333V116.444H82V118.722Z" fill="#28313B"/>
<rect x="64.9166" y="110.75" width="15.9444" height="4.55556" fill="#CDFFD0"/>
<path fill-rule="evenodd" clip-rule="evenodd" d="M64.9167 116.444H80.8612C81.5445 116.444 82.0001 115.989 82.0001 115.306V110.75C82.0001 110.067 81.5445 109.611 80.8612 109.611H64.9167C64.2334 109.611 63.7778 110.067 63.7778 110.75V115.306C63.7778 115.989 64.2334 116.444 64.9167 116.444ZM79.7223 114.167H66.0556V111.889H79.7223V114.167Z" fill="#28313B"/>
<rect x="66.0555" y="97.0834" width="15.9444" height="4.55556" fill="#CDFFD0"/>
<path fill-rule="evenodd" clip-rule="evenodd" d="M66.0555 102.778H82C82.6833 102.778 83.1388 102.322 83.1388 101.639V97.0833C83.1388 96.4 82.6833 95.9445 82 95.9445H66.0555C65.3722 95.9445 64.9166 96.4 64.9166 97.0833V101.639C64.9166 102.322 65.3722 102.778 66.0555 102.778ZM80.8611 100.5H67.1944V98.2222H80.8611V100.5Z" fill="#28313B"/>
<rect x="79.7222" y="98.2222" width="1.13889" height="2.27778" fill="#CDFFD0"/>
<rect x="78.5834" y="111.889" width="1.13889" height="2.27778" fill="#CDFFD0"/>
<rect x="80.8611" y="102.778" width="1.13889" height="2.27778" fill="#CDFFD0"/>
<rect x="80.8611" y="107.333" width="1.13889" height="2.27778" fill="#CDFFD0"/>
<rect x="64.9166" y="83.4166" width="15.9444" height="4.55556" fill="#CDFFD0"/>
<path fill-rule="evenodd" clip-rule="evenodd" d="M64.9167 89.1112H80.8612C81.5445 89.1112 82.0001 88.6556 82.0001 87.9723V83.4167C82.0001 82.7334 81.5445 82.2778 80.8612 82.2778H64.9167C64.2334 82.2778 63.7778 82.7334 63.7778 83.4167V87.9723C63.7778 88.6556 64.2334 89.1112 64.9167 89.1112ZM79.7223 86.8334H66.0556V84.5556H79.7223V86.8334Z" fill="#28313B"/>
<rect x="64.9166" y="92.5278" width="15.9444" height="4.55556" fill="#CE7B34"/>
<path fill-rule="evenodd" clip-rule="evenodd" d="M64.9167 98.2222H80.8612C81.5445 98.2222 82.0001 97.7667 82.0001 97.0834V92.5278C82.0001 91.8445 81.5445 91.3889 80.8612 91.3889H64.9167C64.2334 91.3889 63.7778 91.8445 63.7778 92.5278V97.0834C63.7778 97.7667 64.2334 98.2222 64.9167 98.2222ZM79.7223 95.9445H66.0556V93.6667H79.7223V95.9445Z" fill="#28313B"/>
<rect x="78.5834" y="93.6666" width="1.13889" height="2.27778" fill="#CDFFD0"/>
<rect x="78.5834" y="84.5555" width="1.13889" height="2.27778" fill="#CDFFD0"/>
<rect x="77.4445" y="89.1111" width="1.13889" height="2.27778" fill="#CDFFD0"/>
<rect x="63.7778" y="69.75" width="15.9444" height="4.55556" fill="#CDFFD0"/>
<path fill-rule="evenodd" clip-rule="evenodd" d="M63.7778 75.4444H79.7222C80.4056 75.4444 80.8611 74.9889 80.8611 74.3055V69.75C80.8611 69.0666 80.4056 68.6111 79.7222 68.6111H63.7778C63.0945 68.6111 62.6389 69.0666 62.6389 69.75V74.3055C62.6389 74.9889 63.0945 75.4444 63.7778 75.4444ZM78.5834 73.1666H64.9167V70.8889H78.5834V73.1666Z" fill="#28313B"/>
<rect x="76.3055" y="70.8889" width="2.27778" height="2.27778" fill="#CDFFD0"/>
<rect x="63.7778" y="74.3055" width="15.9444" height="4.55556" fill="#CDFFD0"/>
<path fill-rule="evenodd" clip-rule="evenodd" d="M63.7778 80H79.7222C80.4056 80 80.8611 79.5444 80.8611 78.8611V74.3055C80.8611 73.6222 80.4056 73.1666 79.7222 73.1666H63.7778C63.0945 73.1666 62.6389 73.6222 62.6389 74.3055V78.8611C62.6389 79.5444 63.0945 80 63.7778 80ZM78.5834 77.7222H64.9167V75.4444H78.5834V77.7222Z" fill="#28313B"/>
<rect x="76.3055" y="75.4445" width="2.27778" height="2.27778" fill="#CDFFD0"/>
<rect x="62.6389" y="78.8611" width="15.9444" height="4.55556" fill="#CDFFD0"/>
<path fill-rule="evenodd" clip-rule="evenodd" d="M62.6389 84.5555H78.5833C79.2667 84.5555 79.7222 84.0999 79.7222 83.4166V78.8611C79.7222 78.1777 79.2667 77.7222 78.5833 77.7222H62.6389C61.9556 77.7222 61.5 78.1777 61.5 78.8611V83.4166C61.5 84.0999 61.9556 84.5555 62.6389 84.5555ZM77.4444 82.2777H63.7778V79.9999H77.4444V82.2777Z" fill="#28313B"/>
<path d="M68.3333 71.5722L66.625 68.9528C64.0056 65.0806 60.2472 62.1195 55.8056 60.6389H48.9722H47.8333V73.1667H48.9722V66.1056C48.9722 64.3972 51.1361 63.6 52.275 64.9667C53.4139 66.3334 54.325 68.0417 54.8944 69.6361L55.8056 72.2556C56.2611 73.6222 56.7167 74.875 57.0583 76.2417C57.2861 77.0389 56.375 77.6084 55.8056 77.0389C53.4139 74.875 50.1111 73.85 46.6944 74.6472C41.3417 75.7861 37.8111 81.2528 38.8361 86.7195C39.975 92.4139 45.5556 95.9445 51.25 94.6917C54.8944 93.8945 57.6278 91.1611 58.6528 87.8584C58.8806 87.0611 60.0195 87.175 60.1333 87.9722C60.9306 92.3 61.3861 96.8556 61.3861 102.208V102.778C61.3861 102.892 61.3861 102.892 61.3861 103.006C61.2722 108.244 57.9694 112.572 53.3 114.394C51.5917 115.078 49.8833 113.711 49.9972 111.889C49.9972 111.206 49.5417 110.75 48.9722 110.75H47.9472C47.2639 110.75 46.8083 110.181 46.8083 109.497C46.8083 108.928 47.3778 108.472 47.9472 108.472V108.472C48.5167 108.472 49.0861 108.017 49.0861 107.333L49.3139 102.778C49.3139 102.094 48.8583 101.639 48.2889 101.639H33.4833H30.2944C29.1556 101.639 28.2444 100.614 28.3583 99.475L28.5861 97.0834L29.1556 93.6667C29.2694 92.9834 28.8139 92.5278 28.2444 92.5278C27.675 92.5278 27.3333 92.0723 27.3333 91.5028L27.4472 91.0472C27.5611 90.5917 27.9028 90.25 28.3583 90.25H29.6111C30.1806 90.25 30.6361 89.7945 30.75 89.1111L31.3194 85.6945L31.8889 81.1389C31.8889 80.7972 31.775 80.4556 31.6611 80.2278C31.3194 79.8861 31.2056 79.0889 31.2056 78.6334L31.4333 76.5834C31.5472 75.9 31.2056 75.4445 30.6361 75.4445H23.9167C17.8806 85.125 14.6917 94.0084 14.8056 105.397C14.8056 107.447 15.375 109.497 16.2861 111.433L16.5139 112.003C18.3361 115.647 21.6389 118.267 25.5111 119.178L26.8778 119.519C28.0167 119.747 29.0417 119.975 30.1806 119.975V119.975H49.6556H55.4639H64.3472C65.4861 119.975 66.625 119.861 67.65 119.519L68.1056 119.406C72.5472 118.267 76.0778 115.078 77.6722 110.864C77.7861 110.408 78.0139 109.953 78.1278 109.497C78.4694 108.358 78.5833 107.219 78.5833 106.081V105.283C78.5833 93.2111 75.0528 81.4806 68.3333 71.5722Z" fill="white"/>
<path d="M68.3333 71.5722L66.6249 68.9528C65.7138 67.7 64.8027 66.4472 63.6638 65.4222C63.6638 65.5361 63.7777 65.5361 63.7777 65.65L65.2583 68.725C70.9527 80.2278 72.8888 91.275 72.8888 105.169V105.169C72.8888 108.7 70.8388 111.889 67.6499 113.483L59.2222 117.583V119.861H71.7499L72.0916 117.014C74.3694 115.306 76.8749 113.028 77.6722 110.864C78.2416 109.269 78.5833 107.675 78.5833 106.081V105.283C78.5833 93.2111 75.0527 81.4806 68.3333 71.5722Z" fill="white"/>
<path d="M60.3612 42.4167V42.7584C60.3612 44.8084 59.9056 46.8584 59.2223 48.6806C58.4251 50.5028 57.2862 52.2111 55.8056 53.6917H37.5834C34.6223 50.7306 33.0278 46.8584 33.0278 42.6445V42.4167C33.0278 41.1639 34.8501 40.1389 37.1278 40.1389C40.5445 40.1389 46.6945 42.4167 46.6945 42.4167C46.6945 42.4167 52.8445 44.6945 56.2612 44.6945C58.5389 44.6945 60.3612 43.6695 60.3612 42.4167Z" fill="white"/>
<path d="M56.2612 44.6944C54.7806 44.6944 52.8445 44.2388 51.0223 43.7833V43.8972C50.2251 48.3388 46.239 51.5277 41.6834 51.5277H39.2917C38.9501 51.5277 38.7223 51.7555 38.7223 52.0972C38.7223 52.4388 38.9501 52.6666 39.2917 52.6666H44.4167C42.8223 53.35 41.114 53.8055 39.2917 53.8055H55.8056C57.2862 52.325 58.4251 50.6166 59.2223 48.7944C60.0195 46.9722 60.3612 44.9222 60.3612 42.8722V42.4166C60.3612 43.6694 58.539 44.6944 56.2612 44.6944Z" fill="white"/>
<path d="M37.5834 53.8055H39.2917C38.6084 53.8055 38.0389 53.6916 37.4695 53.6916L37.5834 53.8055Z" fill="#4D9954"/>
<path d="M60.3611 42.4167C60.3611 43.6695 58.5389 44.6945 56.2611 44.6945C52.8445 44.6945 46.6945 42.4167 46.6945 42.4167C46.6945 42.4167 52.8445 40.1389 56.2611 40.1389C58.5389 40.1389 60.3611 41.1639 60.3611 42.4167Z" fill="white"/>
<path d="M35.0777 46.4028C34.85 46.4028 34.6222 46.1751 34.5083 45.9473C34.2805 44.9223 34.1666 43.8973 34.1666 42.7584V42.5306C34.1666 42.4167 34.1666 42.3028 34.2805 42.1889C34.7361 41.7334 35.7611 41.2778 37.1277 41.2778C38.8361 41.2778 41.5694 41.9612 43.3916 42.5306C43.7333 42.6445 43.8472 42.9862 43.7333 43.2139C43.6194 43.5556 43.2777 43.6695 43.05 43.5556C41.4555 43.1001 39.8611 42.7584 38.7222 42.5306C38.6083 42.5306 38.6083 42.5306 38.4944 42.5306C36.7861 42.4167 35.3055 44.0112 35.6472 45.7195V45.7195C35.7611 46.0612 35.5333 46.2889 35.1916 46.4028H35.0777Z" fill="white"/>
<path fill-rule="evenodd" clip-rule="evenodd" d="M47.8333 60.6389V69.4084C47.8333 70.8889 48.8583 72.1417 50.225 72.5972C54.7805 74.0778 58.0833 78.4056 58.0833 83.4167C58.0833 89.7945 52.7305 95.0334 46.3527 94.8056C40.5444 94.6917 35.6472 89.9084 35.3055 84.1C35.0777 78.7472 38.3805 74.1917 43.1639 72.5972C44.5305 72.1417 45.5555 70.8889 45.5555 69.4084V60.6389H47.8333ZM37.5833 83.4167C37.5833 88.4278 41.6833 92.5278 46.6944 92.5278C51.7055 92.5278 55.8055 88.4278 55.8055 83.4167C55.8055 78.4056 51.7055 74.3056 46.6944 74.3056C41.6833 74.3056 37.5833 78.4056 37.5833 83.4167Z" fill="#28313B"/>
<path d="M85.4167 121H1.13889C0.455555 121 0 120.544 0 119.861C0 119.178 0.455555 118.722 1.13889 118.722H85.4167C86.1 118.722 86.5556 119.178 86.5556 119.861C86.5556 120.544 86.1 121 85.4167 121Z" fill="#28313B"/>
<path fill-rule="evenodd" clip-rule="evenodd" d="M67.65 68.2694L69.3583 70.8889C76.0777 81.1389 79.7222 92.9833 79.7222 105.169V105.967C79.7222 107.789 79.4944 109.497 78.8111 111.206C77.1027 115.761 73.2305 119.292 68.4472 120.431L67.9916 120.544C66.7388 120.886 65.6 121 64.3472 121H30.1805C28.9277 121 27.675 120.886 26.5361 120.544L25.1694 120.203C20.9555 119.178 17.425 116.331 15.4888 112.458L15.2611 111.889C14.2361 109.725 13.6666 107.447 13.6666 105.169C13.6666 92.9833 17.1972 81.1389 24.0305 70.8889L25.7388 68.2694C28.2444 64.625 31.6611 61.7778 35.7611 60.0694C35.5333 59.6139 35.3055 59.0444 35.3055 58.3611V56.0833C35.3055 55.2861 35.6472 54.4889 36.1027 53.8056C33.3694 50.7306 31.8888 46.8583 31.8888 42.7583V42.4167C31.8888 40.4806 34.1666 39 37.1277 39C39.8708 39 44.1545 40.3594 46.0984 40.9763L46.0987 40.9764C46.3338 41.051 46.5347 41.1147 46.6944 41.1639C46.8536 41.1149 47.0537 41.0514 47.2879 40.9771L47.2889 40.9768L47.2897 40.9765L47.2901 40.9764L47.2904 40.9763C49.2343 40.3594 53.518 39 56.2611 39C59.2222 39 61.5 40.4806 61.5 42.4167V42.7583C61.5 46.9722 60.0194 50.8444 57.2861 53.9194C57.7416 54.4889 58.0833 55.2861 58.0833 56.0833V58.3611C58.0833 58.9306 57.9694 59.6139 57.6277 60.0694C61.7277 61.7778 65.2583 64.625 67.65 68.2694ZM59.2222 42.4167C59.2222 42.075 58.1972 41.2778 56.2611 41.2778C54.6666 41.2778 52.275 41.8472 50.3388 42.4167C52.275 42.9861 54.6666 43.5556 56.2611 43.5556C58.1972 43.5556 59.2222 42.7583 59.2222 42.4167ZM34.1666 42.7583V42.4167C34.1666 42.075 35.1916 41.2778 37.1277 41.2778C39.8098 41.2778 44.4253 42.8085 45.8925 43.295C46.1698 43.387 46.3346 43.4417 46.3527 43.4417C46.5805 43.5556 52.7305 45.8333 56.2611 45.8333C57.2861 45.8333 58.1972 45.6056 58.9944 45.3778C58.5388 48.1111 57.2861 50.6167 55.35 52.6667H54.6666H51.9333C52.8444 51.7556 53.6416 50.7306 53.9833 49.4778C54.0972 49.1361 53.8694 48.9083 53.6416 48.7944C53.3 48.6806 53.0722 48.9083 52.9583 49.1361C52.5027 50.6167 51.3638 51.8694 49.9972 52.7806H47.15V48.1111C47.15 47.7694 46.9222 47.5417 46.5805 47.5417C46.2388 47.5417 46.125 47.7694 46.125 48.1111V52.6667H43.2777C41.9111 51.8694 40.8861 50.6167 40.3166 49.0222C40.2027 48.6806 39.8611 48.5667 39.6333 48.6806C39.2916 48.7944 39.1777 49.1361 39.2916 49.3639C39.7472 50.6167 40.4305 51.7556 41.3416 52.5528H38.7222H38.0388C35.5333 49.9333 34.1666 46.5167 34.1666 42.7583ZM37.5833 56.0833V56.6528H55.8055V56.0833C55.8055 55.4 55.35 54.9444 54.6666 54.9444H38.7222C38.0388 54.9444 37.5833 55.4 37.5833 56.0833ZM55.8055 57.7917V58.3611C55.8055 59.0444 55.35 59.5 54.6666 59.5H38.7222C38.0388 59.5 37.5833 59.0444 37.5833 58.3611V57.7917H55.8055ZM76.6472 110.408C77.2166 108.928 77.4444 107.447 77.4444 105.967H77.3305V105.283C77.3305 93.5528 73.8 82.05 67.3083 72.2556L65.6 69.6361C63.2083 66.1056 59.6777 63.2583 55.5777 61.8917H54.6666H53.5277C54.6666 62.6889 55.5777 63.6 56.4888 64.625C56.9444 65.0806 56.8305 65.7639 56.375 66.2194C56.2611 66.3333 55.9194 66.4472 55.6916 66.4472C55.35 66.4472 55.0083 66.2194 54.7805 65.9917C52.6166 63.3722 49.6555 61.8917 46.5805 61.8917C43.5055 61.8917 40.5444 63.3722 38.3805 65.9917C38.0388 66.4472 37.2416 66.5611 36.7861 66.1056C36.3305 65.7639 36.2166 64.9667 36.6722 64.5111C37.5833 63.3722 38.6083 62.4611 39.6333 61.7778H38.7222H37.4694C33.3694 63.1444 29.8388 65.8778 27.4472 69.5222L25.7388 72.1417C19.1333 81.9361 15.7166 93.325 15.7166 105.169C15.7166 107.219 16.1722 109.156 17.0833 110.864L17.3111 111.433C18.9055 114.736 21.9805 117.128 25.5111 118.039L26.8777 118.381C27.9027 118.608 28.9277 118.722 29.9527 118.722H32.5722C29.1555 117.583 25.9666 115.989 23.1194 113.939C22.6638 113.597 22.55 112.8 22.8916 112.344C23.2333 111.889 24.0305 111.775 24.4861 112.117C30.5222 116.444 38.4944 118.722 46.4666 118.722H46.8083C54.7805 118.722 62.7527 116.444 68.675 112.117C69.2444 111.775 69.9277 111.889 70.2694 112.344C70.6111 112.914 70.4972 113.597 70.0416 113.939C67.1944 115.989 64.0055 117.583 60.5888 118.722H64.3472C65.3722 118.722 66.3972 118.608 67.4222 118.381L67.8777 118.267C71.8638 117.242 75.1666 114.281 76.6472 110.408Z" fill="#28313B"/>
<rect x="29.6112" y="115.306" width="15.9444" height="4.55556" fill="#CDFFD0"/>
<path fill-rule="evenodd" clip-rule="evenodd" d="M29.6112 121H45.5556C46.239 121 46.6945 120.544 46.6945 119.861V115.306C46.6945 114.622 46.239 114.167 45.5556 114.167H29.6112C28.9278 114.167 28.4723 114.622 28.4723 115.306V119.861C28.4723 120.544 28.9278 121 29.6112 121ZM44.4167 118.722H30.7501V116.444H44.4167V118.722Z" fill="#28313B"/>
<path d="M41.0001 116.444V116.444C41.0001 117.128 40.5445 117.583 39.8612 117.583H35.3057C34.964 117.583 34.7362 117.811 34.7362 118.153C34.7362 118.494 34.964 118.722 35.3057 118.722H41.0001H41.5695H44.4168V116.444H41.0001Z" fill="#CDFFD0"/>
<rect x="43.2778" y="116.444" width="1.13889" height="2.27778" fill="#E47E25"/>
<rect x="29.6112" y="110.75" width="15.9444" height="4.55556" fill="#CDFFD0"/>
<path fill-rule="evenodd" clip-rule="evenodd" d="M29.6112 116.444H45.5556C46.239 116.444 46.6945 115.989 46.6945 115.306V110.75C46.6945 110.067 46.239 109.611 45.5556 109.611H29.6112C28.9278 109.611 28.4723 110.067 28.4723 110.75V115.306C28.4723 115.989 28.9278 116.444 29.6112 116.444ZM44.4167 114.167H30.7501V111.889H44.4167V114.167Z" fill="#28313B"/>
<path d="M41.0001 111.889V111.889C41.0001 112.572 40.5445 113.028 39.8612 113.028H39.2917C38.9501 113.028 38.7223 113.256 38.7223 113.597C38.7223 113.939 38.9501 114.167 39.2917 114.167H41.0001H41.5695H44.4167V111.889H41.0001Z" fill="#CDFFD0"/>
<rect x="43.2778" y="111.889" width="1.13889" height="2.27778" fill="#CDFFD0"/>
<rect x="26.1946" y="106.194" width="15.9444" height="4.55556" fill="#CDFFD0"/>
<path fill-rule="evenodd" clip-rule="evenodd" d="M26.1946 111.889H42.139C42.8223 111.889 43.2779 111.433 43.2779 110.75V106.194C43.2779 105.511 42.8223 105.056 42.139 105.056H26.1946C25.5112 105.056 25.0557 105.511 25.0557 106.194V110.75C25.0557 111.433 25.5112 111.889 26.1946 111.889ZM41.0001 109.611H27.3334V107.333H41.0001V109.611Z" fill="#28313B"/>
<path d="M37.5834 107.333V107.333C37.5834 108.017 37.1279 108.472 36.4446 108.472H35.8751C35.5334 108.472 35.3057 108.7 35.3057 109.042C35.3057 109.383 35.5334 109.611 35.8751 109.611H37.5834H38.1529H41.0001V107.333H37.5834Z" fill="#CDFFD0"/>
<rect x="39.8612" y="107.333" width="1.13889" height="2.27778" fill="#CDFFD0"/>
<rect x="28.4723" y="101.639" width="15.9444" height="4.55556" fill="#CDFFD0"/>
<path fill-rule="evenodd" clip-rule="evenodd" d="M28.4723 107.333H44.4167C45.1 107.333 45.5556 106.878 45.5556 106.194V101.639C45.5556 100.956 45.1 100.5 44.4167 100.5H28.4723C27.7889 100.5 27.3334 100.956 27.3334 101.639V106.194C27.3334 106.878 27.7889 107.333 28.4723 107.333ZM43.2778 105.056H29.6112V102.778H43.2778V105.056Z" fill="#28313B"/>
<rect x="30.75" y="102.778" width="2.27778" height="2.27778" fill="#CDFFD0"/>
<rect x="34.1667" y="102.778" width="1.13889" height="2.27778" fill="#CDFFD0"/>
<path d="M39.8612 102.778V102.778C39.8612 103.461 39.4056 103.917 38.7223 103.917H38.1528C37.8112 103.917 37.5834 104.144 37.5834 104.486C37.5834 104.828 37.8112 105.056 38.1528 105.056H39.8612H40.4306H43.2778V102.778H39.8612Z" fill="#CDFFD0"/>
<rect x="42.1389" y="102.778" width="1.13889" height="2.27778" fill="#CDFFD0"/>
<path d="M36.9 116.444H30.75V118.722H35.5333C36.1028 118.039 36.5583 117.242 36.9 116.444Z" fill="#CDFFD0"/>
<path d="M30.75 114.167H37.4694C37.4694 113.825 37.5833 113.369 37.5833 113.028C37.5833 112.686 37.5833 112.23 37.4694 111.889H30.75V114.167Z" fill="#CDFFD0"/>
<path d="M35.5333 107.333H30.75V109.611H36.9C36.5583 108.814 36.1028 108.017 35.5333 107.333Z" fill="#CDFFD0"/>
<rect x="5.69458" y="115.306" width="15.9444" height="4.55556" fill="#CDFFD0"/>
<path fill-rule="evenodd" clip-rule="evenodd" d="M5.69455 121H21.639C22.3223 121 22.7779 120.544 22.7779 119.861V115.306C22.7779 114.622 22.3223 114.167 21.639 114.167H5.69455C5.01122 114.167 4.55566 114.622 4.55566 115.306V119.861C4.55566 120.544 5.01122 121 5.69455 121ZM20.5001 118.722H6.83344V116.444H20.5001V118.722Z" fill="#28313B"/>
<rect x="7.97229" y="116.444" width="2.27778" height="2.27778" fill="#CDFFD0"/>
<rect x="11.389" y="116.444" width="1.13889" height="2.27778" fill="#CDFFD0"/>
<path d="M17.0834 116.444V116.444C17.0834 117.128 16.6279 117.583 15.9446 117.583H15.3751C15.0334 117.583 14.8057 117.811 14.8057 118.153C14.8057 118.494 15.0334 118.722 15.3751 118.722H17.0834H17.6529H20.5001V116.444H17.0834Z" fill="#F19920"/>
<rect x="19.3612" y="116.444" width="1.13889" height="2.27778" fill="#E47E25"/>
<rect x="5.69458" y="110.75" width="15.9444" height="4.55556" fill="#CDFFD0"/>
<path fill-rule="evenodd" clip-rule="evenodd" d="M5.69455 116.444H21.639C22.3223 116.444 22.7779 115.989 22.7779 115.306V110.75C22.7779 110.067 22.3223 109.611 21.639 109.611H5.69455C5.01122 109.611 4.55566 110.067 4.55566 110.75V115.306C4.55566 115.989 5.01122 116.444 5.69455 116.444ZM20.5001 114.167H6.83344V111.889H20.5001V114.167Z" fill="#28313B"/>
<rect x="7.97229" y="111.889" width="2.27778" height="2.27778" fill="#CDFFD0"/>
<rect x="11.389" y="111.889" width="1.13889" height="2.27778" fill="#CDFFD0"/>
<path d="M17.0834 111.889V111.889C17.0834 112.572 16.6279 113.028 15.9446 113.028H15.3751C15.0334 113.028 14.8057 113.256 14.8057 113.597C14.8057 113.939 15.0334 114.167 15.3751 114.167H17.0834H17.6529H20.5001V111.889H17.0834Z" fill="#F19920"/>
<rect x="19.3612" y="111.889" width="1.13889" height="2.27778" fill="#E47E25"/>
<rect x="5.69458" y="106.194" width="15.9444" height="4.55556" fill="#CDFFD0"/>
<path fill-rule="evenodd" clip-rule="evenodd" d="M5.69455 111.889H21.639C22.3223 111.889 22.7779 111.433 22.7779 110.75V106.194C22.7779 105.511 22.3223 105.056 21.639 105.056H5.69455C5.01122 105.056 4.55566 105.511 4.55566 106.194V110.75C4.55566 111.433 5.01122 111.889 5.69455 111.889ZM20.5001 109.611H6.83344V107.333H20.5001V109.611Z" fill="#28313B"/>
<rect x="7.97229" y="107.333" width="2.27778" height="2.27778" fill="#CDFFD0"/>
<rect x="11.389" y="107.333" width="1.13889" height="2.27778" fill="#CDFFD0"/>
<path d="M17.0834 107.333V107.333C17.0834 108.017 16.6279 108.472 15.9446 108.472H15.3751C15.0334 108.472 14.8057 108.7 14.8057 109.042C14.8057 109.383 15.0334 109.611 15.3751 109.611H17.0834H17.6529H20.5001V107.333H17.0834Z" fill="#F19920"/>
<rect x="19.3612" y="107.333" width="1.13889" height="2.27778" fill="#E47E25"/>
<rect x="5.69458" y="92.5277" width="15.9444" height="4.55556" fill="#CDFFD0"/>
<path fill-rule="evenodd" clip-rule="evenodd" d="M5.69455 98.2221H21.639C22.3223 98.2221 22.7779 97.7666 22.7779 97.0832V92.5277C22.7779 91.8443 22.3223 91.3888 21.639 91.3888H5.69455C5.01122 91.3888 4.55566 91.8443 4.55566 92.5277V97.0832C4.55566 97.7666 5.01122 98.2221 5.69455 98.2221ZM20.5001 95.9443H6.83344V93.6666H20.5001V95.9443Z" fill="#28313B"/>
<rect x="3.41675" y="87.9722" width="15.9444" height="4.55556" fill="#CDFFD0"/>
<path fill-rule="evenodd" clip-rule="evenodd" d="M3.41672 93.6666H19.3612C20.0445 93.6666 20.5001 93.211 20.5001 92.5277V87.9721C20.5001 87.2888 20.0445 86.8333 19.3612 86.8333H3.41672C2.73339 86.8333 2.27783 87.2888 2.27783 87.9721V92.5277C2.27783 93.211 2.73339 93.6666 3.41672 93.6666ZM18.2223 91.3888H4.55561V89.111H18.2223V91.3888Z" fill="#28313B"/>
<rect x="5.69458" y="74.3055" width="15.9444" height="4.55556" fill="#CDFFD0"/>
<path fill-rule="evenodd" clip-rule="evenodd" d="M5.69455 80H21.639C22.3223 80 22.7779 79.5444 22.7779 78.8611V74.3055C22.7779 73.6222 22.3223 73.1666 21.639 73.1666H5.69455C5.01122 73.1666 4.55566 73.6222 4.55566 74.3055V78.8611C4.55566 79.5444 5.01122 80 5.69455 80ZM20.5001 77.7222H6.83344V75.4444H20.5001V77.7222Z" fill="#28313B"/>
<rect x="6.83337" y="83.4166" width="15.9444" height="4.55556" fill="#CDFFD0"/>
<path fill-rule="evenodd" clip-rule="evenodd" d="M6.83335 89.111H22.7778C23.4611 89.111 23.9167 88.6555 23.9167 87.9722V83.4166C23.9167 82.7333 23.4611 82.2777 22.7778 82.2777H6.83335C6.15001 82.2777 5.69446 82.7333 5.69446 83.4166V87.9722C5.69446 88.6555 6.15001 89.111 6.83335 89.111ZM21.6389 86.8333H7.97224V84.5555H21.6389V86.8333Z" fill="#28313B"/>
<rect x="6.83337" y="78.8611" width="15.9444" height="4.55556" fill="#CDFFD0"/>
<path fill-rule="evenodd" clip-rule="evenodd" d="M6.83335 84.5555H22.7778C23.4611 84.5555 23.9167 84.0999 23.9167 83.4166V78.8611C23.9167 78.1777 23.4611 77.7222 22.7778 77.7222H6.83335C6.15001 77.7222 5.69446 78.1777 5.69446 78.8611V83.4166C5.69446 84.0999 6.15001 84.5555 6.83335 84.5555ZM21.6389 82.2777H7.97224V79.9999H21.6389V82.2777Z" fill="#28313B"/>
<rect x="5.69458" y="97.0834" width="15.9444" height="4.55556" fill="#CDFFD0"/>
<path fill-rule="evenodd" clip-rule="evenodd" d="M5.69455 102.778H21.639C22.3223 102.778 22.7779 102.322 22.7779 101.639V97.0833C22.7779 96.4 22.3223 95.9445 21.639 95.9445H5.69455C5.01122 95.9445 4.55566 96.4 4.55566 97.0833V101.639C4.55566 102.322 5.01122 102.778 5.69455 102.778ZM20.5001 100.5H6.83344V98.2222H20.5001V100.5Z" fill="#28313B"/>
<rect x="9.11121" y="101.639" width="15.9444" height="4.55556" fill="#CDFFD0"/>
<path fill-rule="evenodd" clip-rule="evenodd" d="M9.11118 107.333H25.0556C25.739 107.333 26.1945 106.878 26.1945 106.194V101.639C26.1945 100.956 25.739 100.5 25.0556 100.5H9.11118C8.42785 100.5 7.97229 100.956 7.97229 101.639V106.194C7.97229 106.878 8.42785 107.333 9.11118 107.333ZM23.9167 105.056H10.2501V102.778H23.9167V105.056Z" fill="#28313B"/>
<rect x="11.3889" y="102.778" width="2.27778" height="2.27778" fill="#CDFFD0"/>
<rect x="14.8057" y="102.778" width="1.13889" height="2.27778" fill="#CDFFD0"/>
<path d="M20.5001 102.778V102.778C20.5001 103.461 20.0445 103.917 19.3612 103.917H18.7917C18.4501 103.917 18.2223 104.144 18.2223 104.486C18.2223 104.828 18.4501 105.056 18.7917 105.056H20.5001H21.0695H23.9167V102.778H20.5001Z" fill="#CDFFD0"/>
<rect x="22.7778" y="102.778" width="1.13889" height="2.27778" fill="#CDFFD0"/>
<path d="M26.1945 119.861C30.5974 119.861 34.1667 116.292 34.1667 111.889C34.1667 107.486 30.5974 103.917 26.1945 103.917C21.7916 103.917 18.2223 107.486 18.2223 111.889C18.2223 116.292 21.7916 119.861 26.1945 119.861Z" fill="#CDFFD0"/>
<path fill-rule="evenodd" clip-rule="evenodd" d="M17.0834 111.889C17.0834 116.9 21.1834 121 26.1945 121C31.2056 121 35.3056 116.9 35.3056 111.889C35.3056 106.878 31.2056 102.778 26.1945 102.778C21.1834 102.778 17.0834 106.878 17.0834 111.889ZM19.3612 111.889C19.3612 108.13 22.4362 105.055 26.1945 105.055C29.9528 105.055 33.0278 108.13 33.0278 111.889C33.0278 115.647 29.9528 118.722 26.1945 118.722C22.4362 118.722 19.3612 115.647 19.3612 111.889Z" fill="#28313B"/>
<path d="M32.4584 111.319C32.1168 111.319 31.889 111.547 31.889 111.889C31.889 113.369 31.6612 113.939 31.2057 113.939C30.9779 113.939 30.7501 113.711 30.7501 113.028C30.7501 109.611 28.814 106.65 26.0807 105.056C22.3223 105.169 19.3612 108.131 19.3612 111.889C19.3612 115.647 22.4362 118.722 26.1945 118.722C27.3334 118.722 28.3584 118.494 29.2695 117.925C29.3834 117.697 29.6112 117.697 29.6112 117.697C31.6612 116.558 33.0279 114.281 33.0279 111.775C33.0279 111.547 32.8001 111.319 32.4584 111.319Z" fill="#CDFFD0"/>
<path d="M20.5001 119.861C24.903 119.861 28.4723 116.292 28.4723 111.889C28.4723 107.486 24.903 103.917 20.5001 103.917C16.0971 103.917 12.5278 107.486 12.5278 111.889C12.5278 116.292 16.0971 119.861 20.5001 119.861Z" fill="#CDFFD0"/>
<path fill-rule="evenodd" clip-rule="evenodd" d="M11.3889 111.889C11.3889 116.9 15.4889 121 20.5 121C25.5111 121 29.6111 116.9 29.6111 111.889C29.6111 106.878 25.5111 102.778 20.5 102.778C15.4889 102.778 11.3889 106.878 11.3889 111.889ZM13.6667 111.889C13.6667 108.13 16.7417 105.055 20.5 105.055C24.2584 105.055 27.3334 108.13 27.3334 111.889C27.3334 115.647 24.2584 118.722 20.5 118.722C16.7417 118.722 13.6667 115.647 13.6667 111.889Z" fill="#28313B"/>
<path d="M18.7918 105.283C16.4001 105.853 14.464 107.789 13.8945 110.181C13.5529 111.433 13.6668 112.686 14.0084 113.825C14.2362 114.622 15.3751 114.964 15.9445 114.281L22.8918 107.333C23.4612 106.764 23.2334 105.625 22.4362 105.397C21.2973 105.056 20.0445 104.942 18.7918 105.283Z" fill="#CDFFD0"/>
<path d="M17.425 117.242L25.8528 108.814C26.0806 108.586 26.1945 108.13 25.9667 107.789V107.789C25.625 107.333 25.0556 107.333 24.7139 107.675L16.2861 116.103C15.9445 116.444 15.9445 117.014 16.4 117.355V117.355C16.7417 117.583 17.0834 117.583 17.425 117.242Z" fill="#CDFFD0"/>
<path d="M14.3501 111.319C14.3501 111.319 14.2362 111.319 14.3501 111.319C13.8945 111.206 13.7806 110.978 13.7806 110.636C14.2362 107.903 16.514 105.625 19.2473 105.169C19.589 105.169 19.8168 105.283 19.9306 105.625C20.0445 105.967 19.8168 106.194 19.4751 106.308C17.1973 106.764 15.3751 108.586 14.9195 110.864C14.8056 111.092 14.5779 111.319 14.3501 111.319Z" fill="#CDFFD0"/>
<path d="M20.5 118.722C20.1583 118.722 19.9305 118.494 19.9305 118.153C19.9305 117.811 20.1583 117.583 20.5 117.583C23.6889 117.583 26.1944 115.078 26.1944 111.889C26.1944 111.547 26.4222 111.319 26.7639 111.319C27.1055 111.319 27.3333 111.547 27.3333 111.889C27.3333 115.647 24.2583 118.722 20.5 118.722Z" fill="#CDFFD0"/>
<path d="M17.0834 80V80C17.0834 80.6833 16.6279 81.1389 15.9446 81.1389H15.3751C15.0334 81.1389 14.8057 81.3667 14.8057 81.7083C14.8057 82.05 15.0334 82.2778 15.3751 82.2778H17.0834H17.6529H21.639V80H17.0834Z" fill="#CDFFD0"/>
<path d="M17.0834 84.5555V84.5555C17.0834 85.2389 16.6279 85.6944 15.9446 85.6944H15.3751C15.0334 85.6944 14.8057 85.9222 14.8057 86.2639C14.8057 86.6055 15.0334 86.8333 15.3751 86.8333H17.0834H17.6529H21.639V84.5555H17.0834Z" fill="#CDFFD0"/>
<rect x="5.69446" y="89.1111" width="2.27778" height="2.27778" fill="#CDFFD0"/>
<rect x="9.11121" y="89.1111" width="1.13889" height="2.27778" fill="#CDFFD0"/>
<rect x="9.11121" y="80" width="2.27778" height="2.27778" fill="#CDFFD0"/>
<rect x="12.5278" y="80" width="1.13889" height="2.27778" fill="#CDFFD0"/>
<rect x="7.97229" y="75.4445" width="2.27778" height="2.27778" fill="#CDFFD0"/>
<rect x="11.3889" y="75.4445" width="1.13889" height="2.27778" fill="#CDFFD0"/>
<rect x="9.11121" y="84.5555" width="2.27778" height="2.27778" fill="#CDFFD0"/>
<rect x="12.5278" y="84.5555" width="1.13889" height="2.27778" fill="#CDFFD0"/>
<rect x="7.97229" y="93.6666" width="2.27778" height="2.27778" fill="#CDFFD0"/>
<rect x="11.3889" y="93.6666" width="1.13889" height="2.27778" fill="#CDFFD0"/>
<rect x="7.97229" y="98.2222" width="2.27778" height="2.27778" fill="#CDFFD0"/>
<rect x="11.3889" y="98.2222" width="1.13889" height="2.27778" fill="#CDFFD0"/>
<path d="M14.8056 89.1111V89.1111C14.8056 89.7944 14.3501 90.25 13.6667 90.25H13.0973C12.7556 90.25 12.5278 90.4778 12.5278 90.8194C12.5278 91.1611 12.7556 91.3889 13.0973 91.3889H14.8056H15.3751H18.2223V89.1111H14.8056Z" fill="#CDFFD0"/>
<rect x="19.3612" y="84.5555" width="2.27778" height="2.27778" fill="#CDFFD0"/>
<rect x="19.3612" y="80" width="2.27778" height="2.27778" fill="#CDFFD0"/>
<path d="M15.9445 75.4445C15.9445 76.1278 15.489 76.5833 14.8056 76.5833H14.2362C13.8945 76.5833 13.6667 76.8111 13.6667 77.1528C13.6667 77.4945 13.8945 77.7222 14.2362 77.7222H15.9445H16.514H20.5001V75.4445H15.9445Z" fill="#CDFFD0"/>
<rect x="17.0834" y="89.1111" width="1.13889" height="2.27778" fill="#CDFFD0"/>
<path d="M17.0834 93.6666V93.6666C17.0834 94.35 16.6279 94.8055 15.9446 94.8055H15.3751C15.0334 94.8055 14.8057 95.0333 14.8057 95.375C14.8057 95.7166 15.0334 95.9444 15.3751 95.9444H17.0834H17.6529H20.5001V93.6666H17.0834Z" fill="#CDFFD0"/>
<rect x="19.3612" y="93.6666" width="1.13889" height="2.27778" fill="#CDFFD0"/>
<path d="M17.0834 98.2222V98.2222C17.0834 98.9055 16.6279 99.3611 15.9446 99.3611H15.3751C15.0334 99.3611 14.8057 99.5888 14.8057 99.9305C14.8057 100.272 15.0334 100.5 15.3751 100.5H17.0834H17.6529H20.5001V98.2222H17.0834Z" fill="#CDFFD0"/>
<rect x="19.3612" y="98.2222" width="1.13889" height="2.27778" fill="#CDFFD0"/>
<rect x="41" y="115.306" width="15.9444" height="4.55556" fill="#CDFFD0"/>
<path fill-rule="evenodd" clip-rule="evenodd" d="M41 121H56.9444C57.6278 121 58.0833 120.544 58.0833 119.861V115.306C58.0833 114.622 57.6278 114.167 56.9444 114.167H41C40.3166 114.167 39.8611 114.622 39.8611 115.306V119.861C39.8611 120.544 40.3166 121 41 121ZM55.8055 118.722H42.1389V116.444H55.8055V118.722Z" fill="#28313B"/>
<rect x="43.2777" y="116.444" width="2.27778" height="2.27778" fill="#CDFFD0"/>
<rect x="46.6945" y="116.444" width="1.13889" height="2.27778" fill="#CDFFD0"/>
<path d="M51.2499 116.444V116.444C51.2499 117.128 50.7944 117.583 50.1111 117.583H49.5416C49.1999 117.583 48.9722 117.811 48.9722 118.153C48.9722 118.494 49.1999 118.722 49.5416 118.722H51.2499H51.8194H55.8055V116.444H51.2499Z" fill="#CDFFD0"/>
<rect x="53.5277" y="116.444" width="2.27778" height="2.27778" fill="#CDFFD0"/>
<path d="M47 78V88" stroke="#26313C" stroke-width="2" stroke-linecap="round" stroke-linejoin="round"/>
<path d="M52 83L47 88L42 83" stroke="#26313C" stroke-width="2" stroke-linecap="round" stroke-linejoin="round"/>
</svg>
