<svg width="166" height="134" viewBox="0 0 166 134" fill="none" xmlns="http://www.w3.org/2000/svg">
<rect opacity="0.2" x="46" width="120" height="119" rx="26" fill="#BBEFF7"/>
<path d="M15.163 71.0505V58.9918C15.163 55.0314 11.9524 51.8207 7.99195 51.8207V51.8207C4.03137 51.8207 0.820679 55.0314 0.820679 58.9918V71.0503" fill="#AAB1BA"/>
<path d="M66.8923 51.8207C70.8529 51.8207 74.0634 55.0314 74.0634 58.9918V132.26H15.1633V58.9918C15.1633 55.0314 11.9526 51.8207 7.99219 51.8207H66.8923Z" fill="white"/>
<rect x="15.1633" y="119.066" width="58.9001" height="7.08951" fill="#BBEFF7"/>
<rect x="42.8395" y="63.9609" width="25.0622" height="7.08951" fill="#BBEFF7"/>
<path fill-rule="evenodd" clip-rule="evenodd" d="M74.0633 114.405C73.6099 114.405 73.2425 114.772 73.2425 115.226V118.245H15.984V71.0506V58.9921C15.984 58.8412 15.9789 58.6915 15.9705 58.5428C15.9688 58.5112 15.9662 58.4799 15.9636 58.4485L15.9595 58.3983C15.9521 58.298 15.9438 58.198 15.9328 58.0987C15.9266 58.0436 15.9192 57.989 15.9118 57.9342L15.9114 57.9316C15.8993 57.8402 15.8858 57.7492 15.8706 57.6588C15.861 57.6023 15.851 57.546 15.8404 57.4898C15.8231 57.3995 15.8039 57.3099 15.7836 57.2206L15.7774 57.1933C15.7675 57.1492 15.7577 57.1052 15.7468 57.0615C15.7225 56.964 15.6956 56.8675 15.6677 56.7715C15.6626 56.7541 15.6578 56.7366 15.6529 56.7191C15.646 56.6941 15.6391 56.6691 15.6315 56.6444C15.5895 56.5081 15.5445 56.3732 15.4954 56.2402C15.4906 56.2271 15.4854 56.2142 15.4802 56.2013L15.4801 56.2012C15.4754 56.1895 15.4707 56.1779 15.4662 56.166C15.4252 56.0575 15.3823 55.95 15.3367 55.8439C15.3234 55.8131 15.3094 55.7825 15.2953 55.752L15.2953 55.752L15.2735 55.7044C15.2359 55.6213 15.1977 55.5388 15.1573 55.4573C15.1322 55.4068 15.1062 55.3569 15.0801 55.307C15.0401 55.2303 14.999 55.1543 14.9565 55.0791C14.9286 55.0297 14.9005 54.9804 14.8716 54.9317C14.8266 54.8558 14.78 54.7812 14.7327 54.7069L14.7099 54.6711C14.6889 54.638 14.6679 54.6049 14.6462 54.5723C14.5904 54.4884 14.5321 54.4064 14.4732 54.3248C14.4637 54.3116 14.4544 54.2983 14.4451 54.285L14.445 54.2849L14.445 54.2849C14.4315 54.2656 14.418 54.2464 14.4039 54.2274C14.321 54.1161 14.2353 54.0071 14.1469 53.9003C14.1331 53.8836 14.1188 53.8675 14.1046 53.8513L14.1045 53.8512C14.0934 53.8386 14.0823 53.826 14.0715 53.8132C14.0053 53.7358 13.9385 53.6589 13.8696 53.5841C13.8451 53.5574 13.82 53.5314 13.795 53.5054L13.7599 53.4688C13.6992 53.4055 13.6379 53.3428 13.5752 53.2815C13.5349 53.242 13.4938 53.2031 13.4524 53.1645C13.3901 53.106 13.3269 53.0487 13.2628 52.9923L13.2628 52.9922L13.2628 52.9922C13.2206 52.9551 13.1784 52.918 13.1354 52.882C13.0673 52.8245 12.9977 52.7687 12.9276 52.7135C12.9139 52.7027 12.9004 52.6916 12.887 52.6805C12.8712 52.6675 12.8555 52.6544 12.8393 52.642H66.8924C70.394 52.642 73.2427 55.4908 73.2427 58.9924V75.6752C73.2427 76.1287 73.6101 76.4961 74.0635 76.4961C74.5169 76.4961 74.8843 76.1287 74.8843 75.6752V58.9921C74.8841 54.5853 71.2988 51 66.892 51H7.99208H7.99191C3.58514 51 0 54.5853 0 58.9921V71.0506C0 71.504 0.367395 71.8714 0.820812 71.8714C1.27423 71.8714 1.64162 71.504 1.64162 71.0506V58.9921C1.64162 55.4905 4.4905 52.6416 7.99208 52.6416C11.4937 52.6416 14.3424 55.4905 14.3424 58.9921V71.0506V119.066V126.155V132.26C14.3424 132.714 14.7098 133.081 15.1632 133.081C15.6166 133.081 15.984 132.714 15.984 132.26V126.976H73.2425V132.26C73.2425 132.714 73.6099 133.081 74.0633 133.081C74.5167 133.081 74.8841 132.714 74.8841 132.26V126.155V119.066V115.226C74.8841 114.772 74.5166 114.405 74.0633 114.405ZM15.984 125.335V119.887H73.2425V125.335H15.984ZM74.8842 81.386V79.9107C74.8842 79.4574 74.5168 79.0898 74.0634 79.0898C73.61 79.0898 73.2426 79.4572 73.2426 79.9107V81.386C73.2426 81.8394 73.61 82.2068 74.0634 82.2068C74.5168 82.2068 74.8842 81.8394 74.8842 81.386ZM60.1424 90.5762C60.1424 91.0296 59.775 91.397 59.3216 91.397H34.7931C34.3397 91.397 33.9723 91.0296 33.9723 90.5762C33.9723 90.1228 34.3397 89.7554 34.7931 89.7554H59.3216C59.775 89.7554 60.1424 90.1228 60.1424 90.5762ZM26.6875 91.397C27.1409 91.397 27.5083 91.0296 27.5083 90.5762C27.5083 90.1228 27.1409 89.7554 26.6875 89.7554H24.4974C24.044 89.7554 23.6766 90.1228 23.6766 90.5762C23.6766 91.0296 24.044 91.397 24.4974 91.397H26.6875ZM23.6766 74.6907C23.6766 74.2373 24.044 73.8699 24.4974 73.8699H30.7521C31.2055 73.8699 31.5729 74.2373 31.5729 74.6907C31.5729 75.1441 31.2055 75.5115 30.7521 75.5115H24.4974C24.044 75.5115 23.6766 75.144 23.6766 74.6907ZM24.4974 80.6314H34.0344C34.4876 80.6314 34.8552 80.264 34.8552 79.8106C34.8552 79.3571 34.4878 78.9897 34.0344 78.9897H24.4974C24.044 78.9897 23.6766 79.3571 23.6766 79.8106C23.6766 80.264 24.044 80.6314 24.4974 80.6314ZM60.1424 98.6201C60.1424 99.0735 59.775 99.4409 59.3216 99.4409H34.7931C34.3397 99.4409 33.9723 99.0735 33.9723 98.6201C33.9723 98.1667 34.3397 97.7993 34.7931 97.7993H59.3216C59.775 97.7993 60.1424 98.1667 60.1424 98.6201ZM26.6875 99.4409C27.1409 99.4409 27.5083 99.0735 27.5083 98.6201C27.5083 98.1667 27.1409 97.7993 26.6875 97.7993H24.4974C24.044 97.7993 23.6766 98.1667 23.6766 98.6201C23.6766 99.0735 24.044 99.4409 24.4974 99.4409H26.6875ZM60.1424 106.664C60.1424 107.117 59.775 107.485 59.3216 107.485H34.7931C34.3397 107.485 33.9723 107.117 33.9723 106.664C33.9723 106.21 34.3397 105.843 34.7931 105.843H59.3216C59.775 105.843 60.1424 106.21 60.1424 106.664ZM26.6875 107.485C27.1409 107.485 27.5083 107.117 27.5083 106.664C27.5083 106.21 27.1409 105.843 26.6875 105.843H24.4974C24.044 105.843 23.6766 106.21 23.6766 106.664C23.6766 107.117 24.044 107.485 24.4974 107.485H26.6875ZM68.7222 63.9609C68.7222 64.4144 68.3548 64.7818 67.9013 64.7818H42.8392C42.3858 64.7818 42.0184 64.4144 42.0184 63.9609C42.0184 63.5075 42.3858 63.1401 42.8392 63.1401H67.9013C68.3548 63.1401 68.7222 63.5075 68.7222 63.9609ZM42.8392 71.8713H67.9013C68.3548 71.8713 68.7222 71.5039 68.7222 71.0505C68.7222 70.5971 68.3548 70.2297 67.9013 70.2297H42.8392C42.3858 70.2297 42.0184 70.5971 42.0184 71.0505C42.0184 71.5039 42.3858 71.8713 42.8392 71.8713Z" fill="#28313B"/>
<path d="M80.5002 89.1637V89.0366C80.5002 88.2082 79.8286 87.5366 79.0002 87.5366H71.8102H69.0803H68.9883C68.1599 87.5366 67.4883 88.2082 67.4883 89.0366V89.1637C67.4883 89.9922 68.1599 90.6637 68.9883 90.6637H69.0803H71.8102C72.1413 90.6637 72.4934 90.8153 72.8547 91.1137C73.2145 91.4109 73.548 91.8258 73.8281 92.2754C73.9032 92.3958 73.8918 92.5074 73.831 92.6017C73.7648 92.7045 73.632 92.7918 73.4536 92.7918H68.9883C68.1599 92.7918 67.4883 93.4634 67.4883 94.2918V94.4189C67.4883 95.2473 68.1599 95.9189 68.9883 95.9189H73.4536C73.6321 95.9189 73.7648 96.0063 73.831 96.109C73.8917 96.2032 73.9031 96.3148 73.828 96.4352C73.5477 96.8848 73.2141 97.2998 72.8542 97.597C72.4929 97.8955 72.1409 98.047 71.8102 98.047H68.9883C68.1599 98.047 67.4883 98.7186 67.4883 99.547V100.692C67.4883 101.097 67.6518 101.485 67.9417 101.767L73.4481 107.13C73.7281 107.403 74.1037 107.555 74.4946 107.555H74.7163C76.0622 107.555 76.727 105.92 75.7629 104.981L71.8541 101.174C73.1795 101.16 74.3725 100.521 75.3166 99.6307C76.2718 98.7303 77.0084 97.5418 77.4143 96.3643C77.5109 96.084 77.7456 95.9189 77.9717 95.9189H79.0002C79.8286 95.9189 80.5002 95.2473 80.5002 94.4189V94.2918C80.5002 93.4634 79.8286 92.7918 79.0002 92.7918H77.9719C77.7387 92.7918 77.5293 92.6273 77.4731 92.3848C77.44 92.2418 77.4041 92.0923 77.3654 91.9402C77.3065 91.7084 77.3714 91.3781 77.5649 91.0892C77.7598 90.798 78.0042 90.6637 78.1962 90.6637H79.0002C79.8286 90.6637 80.5002 89.9922 80.5002 89.1637Z" fill="#BBEFF7" stroke="#28313B"/>
</svg>
