<svg width="158" height="131" viewBox="0 0 158 131" fill="none" xmlns="http://www.w3.org/2000/svg">
<rect opacity="0.2" x="38" width="120" height="119" rx="26" fill="#FFCD3E"/>
<path fill-rule="evenodd" clip-rule="evenodd" d="M57.5194 54.7908H11.8134L2.19116 64.3274V128.7H67.1421V64.3274L57.5194 54.7908Z" fill="white"/>
<path fill-rule="evenodd" clip-rule="evenodd" d="M40.266 54.7908H31.3069L29.0674 64.139V78.1614L32.4267 74.6558L39.1462 81.667L42.5055 76.9929V64.139L40.266 54.7908Z" fill="#F8E0D1"/>
<path fill-rule="evenodd" clip-rule="evenodd" d="M8.91028 121.981H22.3484V113.023H8.91028V121.981Z" fill="white"/>
<mask id="mask0" mask-type="alpha" maskUnits="userSpaceOnUse" x="0" y="52" width="69" height="79">
<path fill-rule="evenodd" clip-rule="evenodd" d="M0 52.6101L69 52.6101L69 130.662H0L0 52.6101Z" fill="white"/>
</mask>
<g mask="url(#mask0)">
<mask id="path-6-inside-1" fill="white">
<path fill-rule="evenodd" clip-rule="evenodd" d="M41.9391 86.7659C41.8935 86.7635 41.8518 86.7586 41.8071 86.761C41.7877 86.7623 41.7693 86.7696 41.7489 86.772C41.4626 86.7964 41.1802 86.9013 40.9609 87.1196L37.3633 90.6816C36.8674 91.1731 36.8674 91.9707 37.3633 92.462C37.8602 92.9535 38.6657 92.9535 39.1616 92.462L40.6581 90.9804L40.6581 97.7363C40.6581 98.4106 41.2084 98.9557 41.8896 98.9557C42.5709 98.9557 43.1212 98.4106 43.1212 97.7363L43.1212 90.9926L44.6409 92.4974C45.1427 92.9925 45.9521 92.9925 46.4518 92.4974C46.9507 92.0023 46.9507 91.2011 46.4518 90.706L42.8329 87.122C42.5855 86.8781 42.2633 86.7684 41.9391 86.7659ZM19.7211 102.614C19.7211 103.288 20.2713 103.833 20.9526 103.833L48.0484 103.833C48.7287 103.833 49.2799 103.288 49.2799 102.614C49.2799 101.94 48.7287 101.395 48.0484 101.395L20.9526 101.395C20.2713 101.395 19.7211 101.94 19.7211 102.614ZM46.8158 114.809C46.8158 115.483 47.3671 116.028 48.0483 116.028H60.3637C61.045 116.028 61.5952 115.483 61.5952 114.809C61.5952 114.134 61.045 113.589 60.3637 113.589H48.0483C47.3671 113.589 46.8158 114.134 46.8158 114.809ZM55.4375 118.467H48.0483C47.3671 118.467 46.8158 119.012 46.8158 119.686C46.8158 120.361 47.3671 120.906 48.0483 120.906H55.4375C56.1188 120.906 56.6691 120.361 56.6691 119.686C56.6691 119.012 56.1188 118.467 55.4375 118.467ZM22.1841 120.906H9.8678L9.8678 113.589H22.1841L22.1841 120.906ZM22.1841 111.15H9.86778C8.50717 111.15 7.40471 112.243 7.40471 113.589L7.40471 120.906C7.40471 122.254 8.50717 123.345 9.86778 123.345H22.1841C23.5438 123.345 24.6472 122.254 24.6472 120.906L24.6472 113.589C24.6472 112.243 23.5438 111.15 22.1841 111.15ZM24.3823 92.462L25.8787 90.9804V97.7363C25.8787 98.4106 26.429 98.9557 27.1103 98.9557C27.7915 98.9557 28.3418 98.4106 28.3418 97.7363V90.9926L29.8616 92.4974C30.3633 92.9925 31.1727 92.9925 31.6725 92.4974C32.1713 92.0023 32.1713 91.2011 31.6725 90.706L28.0536 87.122C27.8061 86.8781 27.4839 86.7684 27.1598 86.7659C27.1142 86.7635 27.0724 86.7586 27.0278 86.761C27.0084 86.7623 26.9899 86.7696 26.9696 86.772C26.6833 86.7964 26.4009 86.9013 26.1815 87.1196L22.584 90.6816C22.088 91.1731 22.088 91.9707 22.584 92.462C23.0808 92.9535 23.8863 92.9535 24.3823 92.462ZM66.5223 128.222L2.47807 128.222L2.47807 64.8107L25.8787 64.8107L25.8787 78.1358C25.871 78.3199 25.8981 78.504 25.9709 78.6772C26.0971 78.9857 26.3416 79.2284 26.6532 79.3528C27.119 79.5467 27.6741 79.4588 28.0536 79.0832L30.7913 76.3724L37.2285 82.7441C37.4905 83.0038 37.8369 83.1172 38.1786 83.1026C38.525 83.1172 38.8734 83.0026 39.1384 82.7416L42.7573 79.1589C43.0203 78.8979 43.1358 78.5528 43.1212 78.2102L43.1212 64.8107H66.5223L66.5223 128.222ZM11.5971 55.055H28.0574L26.0766 62.3717L4.20721 62.3717L11.5971 55.055ZM28.3418 64.8107H40.6581L40.6581 77.6516L38.1689 80.1162L31.7336 73.7432C31.6075 73.6176 31.459 73.5275 31.3018 73.4652C30.8291 73.247 30.2537 73.3214 29.8616 73.7079L28.3418 75.2127L28.3418 64.8107ZM30.6069 55.055L38.4523 55.055L40.3525 62.3717L28.6262 62.3717L30.6069 55.055ZM57.4658 55.055L65.0384 62.3717H42.864L40.9638 55.055H57.4658ZM68.6321 62.502L58.7769 52.9805C58.7711 52.9756 58.7682 52.972 58.7633 52.9671L58.7517 52.9561C58.7158 52.922 58.6702 52.9072 58.6314 52.8792C58.546 52.8146 58.4644 52.75 58.3654 52.7085C58.2034 52.6426 58.0326 52.6121 57.8598 52.6159L11.142 52.6159C10.9702 52.611 10.8004 52.6415 10.6383 52.7073C10.4714 52.7756 10.3258 52.8792 10.2035 53.0073L0.367067 62.7483C-0.110797 63.2203 0.0147831 63.7276 0.0147831 64.8104L0.0147831 128.222C0.0147831 129.57 1.11705 130.662 2.47805 130.662L66.5223 130.662C67.8819 130.662 68.9854 129.57 68.9854 128.222L68.9854 64.8104C68.9854 64.7312 68.9699 64.6556 68.9621 64.5787C68.9669 64.5543 68.9854 64.5397 68.9854 64.5129C68.9854 63.4569 69.1106 62.9629 68.6321 62.502Z"/>
</mask>
<path fill-rule="evenodd" clip-rule="evenodd" d="M41.9391 86.7659C41.8935 86.7635 41.8518 86.7586 41.8071 86.761C41.7877 86.7623 41.7693 86.7696 41.7489 86.772C41.4626 86.7964 41.1802 86.9013 40.9609 87.1196L37.3633 90.6816C36.8674 91.1731 36.8674 91.9707 37.3633 92.462C37.8602 92.9535 38.6657 92.9535 39.1616 92.462L40.6581 90.9804L40.6581 97.7363C40.6581 98.4106 41.2084 98.9557 41.8896 98.9557C42.5709 98.9557 43.1212 98.4106 43.1212 97.7363L43.1212 90.9926L44.6409 92.4974C45.1427 92.9925 45.9521 92.9925 46.4518 92.4974C46.9507 92.0023 46.9507 91.2011 46.4518 90.706L42.8329 87.122C42.5855 86.8781 42.2633 86.7684 41.9391 86.7659ZM19.7211 102.614C19.7211 103.288 20.2713 103.833 20.9526 103.833L48.0484 103.833C48.7287 103.833 49.2799 103.288 49.2799 102.614C49.2799 101.94 48.7287 101.395 48.0484 101.395L20.9526 101.395C20.2713 101.395 19.7211 101.94 19.7211 102.614ZM46.8158 114.809C46.8158 115.483 47.3671 116.028 48.0483 116.028H60.3637C61.045 116.028 61.5952 115.483 61.5952 114.809C61.5952 114.134 61.045 113.589 60.3637 113.589H48.0483C47.3671 113.589 46.8158 114.134 46.8158 114.809ZM55.4375 118.467H48.0483C47.3671 118.467 46.8158 119.012 46.8158 119.686C46.8158 120.361 47.3671 120.906 48.0483 120.906H55.4375C56.1188 120.906 56.6691 120.361 56.6691 119.686C56.6691 119.012 56.1188 118.467 55.4375 118.467ZM22.1841 120.906H9.8678L9.8678 113.589H22.1841L22.1841 120.906ZM22.1841 111.15H9.86778C8.50717 111.15 7.40471 112.243 7.40471 113.589L7.40471 120.906C7.40471 122.254 8.50717 123.345 9.86778 123.345H22.1841C23.5438 123.345 24.6472 122.254 24.6472 120.906L24.6472 113.589C24.6472 112.243 23.5438 111.15 22.1841 111.15ZM24.3823 92.462L25.8787 90.9804V97.7363C25.8787 98.4106 26.429 98.9557 27.1103 98.9557C27.7915 98.9557 28.3418 98.4106 28.3418 97.7363V90.9926L29.8616 92.4974C30.3633 92.9925 31.1727 92.9925 31.6725 92.4974C32.1713 92.0023 32.1713 91.2011 31.6725 90.706L28.0536 87.122C27.8061 86.8781 27.4839 86.7684 27.1598 86.7659C27.1142 86.7635 27.0724 86.7586 27.0278 86.761C27.0084 86.7623 26.9899 86.7696 26.9696 86.772C26.6833 86.7964 26.4009 86.9013 26.1815 87.1196L22.584 90.6816C22.088 91.1731 22.088 91.9707 22.584 92.462C23.0808 92.9535 23.8863 92.9535 24.3823 92.462ZM66.5223 128.222L2.47807 128.222L2.47807 64.8107L25.8787 64.8107L25.8787 78.1358C25.871 78.3199 25.8981 78.504 25.9709 78.6772C26.0971 78.9857 26.3416 79.2284 26.6532 79.3528C27.119 79.5467 27.6741 79.4588 28.0536 79.0832L30.7913 76.3724L37.2285 82.7441C37.4905 83.0038 37.8369 83.1172 38.1786 83.1026C38.525 83.1172 38.8734 83.0026 39.1384 82.7416L42.7573 79.1589C43.0203 78.8979 43.1358 78.5528 43.1212 78.2102L43.1212 64.8107H66.5223L66.5223 128.222ZM11.5971 55.055H28.0574L26.0766 62.3717L4.20721 62.3717L11.5971 55.055ZM28.3418 64.8107H40.6581L40.6581 77.6516L38.1689 80.1162L31.7336 73.7432C31.6075 73.6176 31.459 73.5275 31.3018 73.4652C30.8291 73.247 30.2537 73.3214 29.8616 73.7079L28.3418 75.2127L28.3418 64.8107ZM30.6069 55.055L38.4523 55.055L40.3525 62.3717L28.6262 62.3717L30.6069 55.055ZM57.4658 55.055L65.0384 62.3717H42.864L40.9638 55.055H57.4658ZM68.6321 62.502L58.7769 52.9805C58.7711 52.9756 58.7682 52.972 58.7633 52.9671L58.7517 52.9561C58.7158 52.922 58.6702 52.9072 58.6314 52.8792C58.546 52.8146 58.4644 52.75 58.3654 52.7085C58.2034 52.6426 58.0326 52.6121 57.8598 52.6159L11.142 52.6159C10.9702 52.611 10.8004 52.6415 10.6383 52.7073C10.4714 52.7756 10.3258 52.8792 10.2035 53.0073L0.367067 62.7483C-0.110797 63.2203 0.0147831 63.7276 0.0147831 64.8104L0.0147831 128.222C0.0147831 129.57 1.11705 130.662 2.47805 130.662L66.5223 130.662C67.8819 130.662 68.9854 129.57 68.9854 128.222L68.9854 64.8104C68.9854 64.7312 68.9699 64.6556 68.9621 64.5787C68.9669 64.5543 68.9854 64.5397 68.9854 64.5129C68.9854 63.4569 69.1106 62.9629 68.6321 62.502Z" fill="#2B3038"/>
<path d="M41.9391 86.7659L41.913 87.2652L41.9241 87.2658L41.9353 87.2659L41.9391 86.7659ZM41.8071 86.761L41.7804 86.2617L41.7752 86.2621L41.8071 86.761ZM41.7489 86.772L41.7913 87.2702L41.7993 87.2696L41.8071 87.2686L41.7489 86.772ZM40.9609 87.1196L41.3127 87.4749L41.3136 87.474L40.9609 87.1196ZM37.3633 90.6816L37.0115 90.3263L37.0114 90.3265L37.3633 90.6816ZM37.3633 92.462L37.0114 92.8172L37.0117 92.8175L37.3633 92.462ZM39.1616 92.462L38.8098 92.1067L38.8097 92.1069L39.1616 92.462ZM40.6581 90.9804H41.1581V89.7817L40.3063 90.6251L40.6581 90.9804ZM43.1212 90.9926L43.473 90.6373L42.6212 89.7939V90.9926H43.1212ZM44.6409 92.4974L44.2891 92.8527L44.2897 92.8533L44.6409 92.4974ZM46.4518 92.4974L46.8037 92.8526L46.8041 92.8523L46.4518 92.4974ZM46.4518 90.706L46.8041 90.3511L46.8037 90.3507L46.4518 90.706ZM42.8329 87.122L43.1848 86.7667L43.1839 86.7659L42.8329 87.122ZM22.1841 120.906V121.406H22.6841V120.906H22.1841ZM9.8678 120.906H9.3678V121.406H9.8678V120.906ZM9.8678 113.589V113.089H9.3678V113.589H9.8678ZM22.1841 113.589H22.6841V113.089H22.1841V113.589ZM24.3823 92.462L24.0305 92.1067L24.0303 92.1069L24.3823 92.462ZM25.8787 90.9804H26.3787V89.7817L25.5269 90.6251L25.8787 90.9804ZM28.3418 90.9926L28.6936 90.6373L27.8418 89.7939V90.9926H28.3418ZM29.8616 92.4974L29.5098 92.8527L29.5104 92.8533L29.8616 92.4974ZM31.6725 92.4974L32.0244 92.8526L32.0247 92.8523L31.6725 92.4974ZM31.6725 90.706L32.0247 90.3511L32.0243 90.3507L31.6725 90.706ZM28.0536 87.122L28.4054 86.7667L28.4045 86.7659L28.0536 87.122ZM27.1598 86.7659L27.1336 87.2652L27.1448 87.2658L27.1559 87.2659L27.1598 86.7659ZM27.0278 86.761L27.0011 86.2617L26.9958 86.2621L27.0278 86.761ZM26.9696 86.772L27.012 87.2702L27.0199 87.2696L27.0278 87.2686L26.9696 86.772ZM26.1815 87.1196L26.5333 87.4749L26.5343 87.474L26.1815 87.1196ZM22.584 90.6816L22.2322 90.3263L22.232 90.3265L22.584 90.6816ZM22.584 92.462L22.232 92.8172L22.2324 92.8175L22.584 92.462ZM66.5223 128.222V128.722H67.0223V128.222H66.5223ZM2.47807 128.222H1.97807L1.97807 128.722H2.47807V128.222ZM2.47807 64.8107L2.47807 64.3107H1.97807V64.8107H2.47807ZM25.8787 64.8107H26.3787V64.3107H25.8787V64.8107ZM25.8787 78.1358L26.3783 78.1569L26.3787 78.1463V78.1358H25.8787ZM25.9709 78.6772L26.4337 78.488L26.4319 78.4836L25.9709 78.6772ZM26.6532 79.3528L26.8453 78.8912L26.8387 78.8885L26.6532 79.3528ZM28.0536 79.0832L28.4053 79.4386L28.4054 79.4385L28.0536 79.0832ZM30.7913 76.3724L31.143 76.0171L30.7912 75.6688L30.4395 76.0171L30.7913 76.3724ZM37.2285 82.7441L37.5804 82.389L37.5802 82.3887L37.2285 82.7441ZM38.1786 83.1026L38.1996 82.603L38.1784 82.6021L38.1572 82.603L38.1786 83.1026ZM39.1384 82.7416L39.4892 83.0978L39.4901 83.0969L39.1384 82.7416ZM42.7573 79.1589L43.109 79.5142L43.1095 79.5138L42.7573 79.1589ZM43.1212 78.2102L42.6212 78.2102V78.2208L42.6216 78.2314L43.1212 78.2102ZM43.1212 64.8107V64.3107H42.6212L42.6212 64.8107L43.1212 64.8107ZM66.5223 64.8107H67.0223V64.3107H66.5223V64.8107ZM11.5971 55.055V54.555H11.3915L11.2453 54.6997L11.5971 55.055ZM28.0574 55.055L28.54 55.1856L28.7107 54.555H28.0574V55.055ZM26.0766 62.3717V62.8717H26.4593L26.5593 62.5024L26.0766 62.3717ZM4.20721 62.3717L3.85542 62.0164L2.99157 62.8717H4.20721V62.3717ZM28.3418 64.8107V64.3107H27.8418V64.8107H28.3418ZM40.6581 64.8107H41.1581V64.3107H40.6581V64.8107ZM40.6581 77.6516L41.0099 78.0069L41.1581 77.8602V77.6516H40.6581ZM38.1689 80.1162L37.817 80.4714L38.1688 80.8198L38.5207 80.4715L38.1689 80.1162ZM31.7336 73.7432L31.3808 74.0976L31.3818 74.0985L31.7336 73.7432ZM31.3018 73.4652L31.0921 73.9192L31.1048 73.925L31.1177 73.9301L31.3018 73.4652ZM29.8616 73.7079L29.5106 73.3518L29.5098 73.3526L29.8616 73.7079ZM28.3418 75.2127H27.8418V76.4115L28.6936 75.568L28.3418 75.2127ZM30.6069 55.055V54.555H30.2243L30.1243 54.9243L30.6069 55.055ZM38.4523 55.055L38.9362 54.9293L38.839 54.555H38.4523V55.055ZM40.3525 62.3717V62.8717H40.9989L40.8364 62.246L40.3525 62.3717ZM28.6262 62.3717L28.1435 62.2411L27.9728 62.8717H28.6262V62.3717ZM57.4658 55.055L57.8132 54.6954L57.6679 54.555H57.4658V55.055ZM65.0384 62.3717V62.8717H66.2755L65.3859 62.0121L65.0384 62.3717ZM42.864 62.3717L42.38 62.4974L42.4772 62.8717H42.864V62.3717ZM40.9638 55.055V54.555H40.3173L40.4798 55.1806L40.9638 55.055ZM68.6321 62.502L68.2847 62.8616L68.2852 62.862L68.6321 62.502ZM58.7769 52.9805L59.1243 52.6209L59.1115 52.6085L59.0979 52.5971L58.7769 52.9805ZM58.7633 52.9671L59.1177 52.6144L59.1123 52.6089L59.1066 52.6036L58.7633 52.9671ZM58.7517 52.9561L58.4072 53.3185L58.4084 53.3196L58.7517 52.9561ZM58.6314 52.8792L58.3296 53.278L58.3388 53.2847L58.6314 52.8792ZM58.3654 52.7085L58.5587 52.2473L58.5537 52.2453L58.3654 52.7085ZM57.8598 52.6159V53.116L57.8706 53.1157L57.8598 52.6159ZM11.142 52.6159L11.1278 53.1157L11.1349 53.1159H11.142V52.6159ZM10.6383 52.7073L10.4503 52.2439L10.4488 52.2445L10.6383 52.7073ZM10.2035 53.0073L10.5555 53.3627L10.5652 53.3526L10.2035 53.0073ZM0.367067 62.7483L0.718416 63.1041L0.718891 63.1036L0.367067 62.7483ZM2.47805 130.662V130.162V130.662ZM66.5223 130.662V131.162V130.662ZM68.9621 64.5787L68.4717 64.4811L68.4571 64.5545L68.4646 64.6289L68.9621 64.5787ZM41.9653 86.2666C41.96 86.2663 41.8602 86.2575 41.7804 86.2617L41.8339 87.2603C41.8302 87.2605 41.8314 87.2601 41.8447 87.2609C41.8518 87.2613 41.8592 87.2618 41.8713 87.2626C41.8823 87.2634 41.8971 87.2644 41.913 87.2652L41.9653 86.2666ZM41.7752 86.2621C41.7443 86.264 41.7184 86.2681 41.6999 86.2716C41.6823 86.275 41.6674 86.2785 41.662 86.2798C41.6533 86.2819 41.6567 86.2811 41.6595 86.2805C41.664 86.2795 41.6753 86.2772 41.6907 86.2754L41.8071 87.2686C41.8327 87.2656 41.854 87.2615 41.8683 87.2585C41.8755 87.2569 41.8816 87.2555 41.8859 87.2545C41.8894 87.2537 41.8943 87.2525 41.8948 87.2524C41.899 87.2514 41.8936 87.2527 41.8855 87.2543C41.8766 87.2559 41.8603 87.2587 41.8391 87.26L41.7752 86.2621ZM41.7065 86.2738C41.3283 86.306 40.9271 86.4477 40.6081 86.7653L41.3136 87.474C41.4333 87.3548 41.5969 87.2868 41.7913 87.2702L41.7065 86.2738ZM40.6091 86.7643L37.0115 90.3263L37.7151 91.0369L41.3127 87.4749L40.6091 86.7643ZM37.0114 90.3265C36.3181 91.0136 36.318 92.1302 37.0114 92.8172L37.7152 92.1068C37.4168 91.8111 37.4167 91.3326 37.7153 91.0368L37.0114 90.3265ZM37.0117 92.8175C37.7032 93.5015 38.8226 93.502 39.5136 92.8172L38.8097 92.1069C38.5088 92.405 38.0172 92.4055 37.7149 92.1065L37.0117 92.8175ZM39.5134 92.8173L41.0099 91.3357L40.3063 90.6251L38.8098 92.1067L39.5134 92.8173ZM40.1581 90.9804L40.1581 97.7363H41.1581L41.1581 90.9804H40.1581ZM40.1581 97.7363C40.1581 98.6913 40.9368 99.4557 41.8896 99.4557V98.4557C41.4799 98.4557 41.1581 98.1299 41.1581 97.7363H40.1581ZM41.8896 99.4557C42.8424 99.4557 43.6212 98.6913 43.6212 97.7363L42.6212 97.7363C42.6212 98.1299 42.2994 98.4557 41.8896 98.4557V99.4557ZM43.6212 97.7363L43.6212 90.9926L42.6212 90.9926L42.6212 97.7363L43.6212 97.7363ZM42.7694 91.3479L44.2891 92.8527L44.9927 92.1421L43.473 90.6373L42.7694 91.3479ZM44.2897 92.8533C44.9858 93.5401 46.1087 93.5411 46.8037 92.8526L46.1 92.1422C45.7954 92.4439 45.2995 92.4448 44.9921 92.1415L44.2897 92.8533ZM46.8041 92.8523C47.4999 92.1616 47.4999 91.0418 46.8041 90.3511L46.0996 91.0609C46.4014 91.3604 46.4014 91.843 46.0996 92.1425L46.8041 92.8523ZM46.8037 90.3507L43.1848 86.7667L42.4811 87.4773L46.1 91.0613L46.8037 90.3507ZM43.1839 86.7659C42.8304 86.4176 42.377 86.2693 41.943 86.2659L41.9353 87.2659C42.1495 87.2675 42.3405 87.3387 42.482 87.4781L43.1839 86.7659ZM19.2211 102.614C19.2211 103.569 19.9998 104.333 20.9526 104.333L20.9526 103.333C20.5429 103.333 20.2211 103.008 20.2211 102.614H19.2211ZM20.9526 104.333L48.0484 104.333V103.333L20.9526 103.333L20.9526 104.333ZM48.0484 104.333C48.9999 104.333 49.7799 103.569 49.7799 102.614H48.7799C48.7799 103.007 48.4574 103.333 48.0484 103.333V104.333ZM49.7799 102.614C49.7799 101.659 48.9999 100.895 48.0484 100.895V101.895C48.4574 101.895 48.7799 102.221 48.7799 102.614H49.7799ZM48.0484 100.895L20.9526 100.895V101.895L48.0484 101.895V100.895ZM20.9526 100.895C19.9998 100.895 19.2211 101.659 19.2211 102.614H20.2211C20.2211 102.22 20.5429 101.895 20.9526 101.895V100.895ZM46.3158 114.809C46.3158 115.764 47.096 116.528 48.0483 116.528V115.528C47.6381 115.528 47.3158 115.202 47.3158 114.809H46.3158ZM48.0483 116.528H60.3637V115.528H48.0483V116.528ZM60.3637 116.528C61.3165 116.528 62.0952 115.764 62.0952 114.809H61.0952C61.0952 115.202 60.7734 115.528 60.3637 115.528V116.528ZM62.0952 114.809C62.0952 113.854 61.3165 113.089 60.3637 113.089V114.089C60.7734 114.089 61.0952 114.415 61.0952 114.809H62.0952ZM60.3637 113.089H48.0483V114.089H60.3637V113.089ZM48.0483 113.089C47.096 113.089 46.3158 113.853 46.3158 114.809H47.3158C47.3158 114.415 47.6381 114.089 48.0483 114.089V113.089ZM55.4375 117.967H48.0483V118.967H55.4375V117.967ZM48.0483 117.967C47.096 117.967 46.3158 118.731 46.3158 119.686H47.3158C47.3158 119.293 47.6381 118.967 48.0483 118.967V117.967ZM46.3158 119.686C46.3158 120.642 47.096 121.406 48.0483 121.406V120.406C47.6381 120.406 47.3158 120.08 47.3158 119.686H46.3158ZM48.0483 121.406H55.4375V120.406H48.0483V121.406ZM55.4375 121.406C56.3904 121.406 57.1691 120.642 57.1691 119.686H56.1691C56.1691 120.08 55.8473 120.406 55.4375 120.406V121.406ZM57.1691 119.686C57.1691 118.731 56.3904 117.967 55.4375 117.967V118.967C55.8473 118.967 56.1691 119.293 56.1691 119.686H57.1691ZM22.1841 120.406H9.8678V121.406H22.1841V120.406ZM10.3678 120.906L10.3678 113.589H9.3678L9.3678 120.906H10.3678ZM9.8678 114.089H22.1841V113.089H9.8678V114.089ZM21.6841 113.589L21.6841 120.906H22.6841L22.6841 113.589H21.6841ZM22.1841 110.65H9.86778V111.65H22.1841V110.65ZM9.86778 110.65C8.23554 110.65 6.90471 111.962 6.90471 113.589H7.90471C7.90471 112.524 8.7788 111.65 9.86778 111.65V110.65ZM6.90471 113.589L6.90471 120.906H7.90471L7.90471 113.589H6.90471ZM6.90471 120.906C6.90471 122.534 8.23571 123.845 9.86778 123.845V122.845C8.77863 122.845 7.90471 121.973 7.90471 120.906H6.90471ZM9.86778 123.845H22.1841V122.845H9.86778V123.845ZM22.1841 123.845C23.8151 123.845 25.1472 122.534 25.1472 120.906H24.1472C24.1472 121.973 23.2724 122.845 22.1841 122.845V123.845ZM25.1472 120.906L25.1472 113.589H24.1472L24.1472 120.906H25.1472ZM25.1472 113.589C25.1472 111.962 23.8153 110.65 22.1841 110.65V111.65C23.2723 111.65 24.1472 112.524 24.1472 113.589H25.1472ZM24.734 92.8173L26.2305 91.3357L25.5269 90.6251L24.0305 92.1067L24.734 92.8173ZM25.3787 90.9804V97.7363H26.3787V90.9804H25.3787ZM25.3787 97.7363C25.3787 98.6913 26.1575 99.4557 27.1103 99.4557V98.4557C26.7005 98.4557 26.3787 98.1299 26.3787 97.7363H25.3787ZM27.1103 99.4557C28.0631 99.4557 28.8418 98.6913 28.8418 97.7363H27.8418C27.8418 98.1299 27.52 98.4557 27.1103 98.4557V99.4557ZM28.8418 97.7363V90.9926H27.8418V97.7363H28.8418ZM27.99 91.3479L29.5098 92.8527L30.2134 92.1421L28.6936 90.6373L27.99 91.3479ZM29.5104 92.8533C30.2065 93.5401 31.3293 93.5411 32.0244 92.8526L31.3206 92.1422C31.0161 92.4439 30.5202 92.4448 30.2128 92.1415L29.5104 92.8533ZM32.0247 92.8523C32.7206 92.1616 32.7206 91.0418 32.0247 90.3511L31.3203 91.0609C31.6221 91.3604 31.6221 91.843 31.3203 92.1425L32.0247 92.8523ZM32.0243 90.3507L28.4054 86.7667L27.7017 87.4773L31.3207 91.0613L32.0243 90.3507ZM28.4045 86.7659C28.0511 86.4176 27.5977 86.2693 27.1636 86.2659L27.1559 87.2659C27.3701 87.2675 27.5611 87.3387 27.7026 87.4781L28.4045 86.7659ZM27.1859 86.2666C27.1806 86.2663 27.0809 86.2575 27.0011 86.2617L27.0545 87.2603C27.0508 87.2605 27.052 87.2601 27.0654 87.2609C27.0725 87.2613 27.0798 87.2618 27.092 87.2626C27.1029 87.2634 27.1177 87.2644 27.1336 87.2652L27.1859 86.2666ZM26.9958 86.2621C26.9649 86.264 26.939 86.2681 26.9206 86.2716C26.903 86.275 26.888 86.2785 26.8826 86.2798C26.874 86.2819 26.8773 86.2811 26.8801 86.2805C26.8846 86.2795 26.8959 86.2772 26.9113 86.2754L27.0278 87.2686C27.0534 87.2656 27.0746 87.2615 27.0889 87.2585C27.0961 87.2569 27.1023 87.2555 27.1066 87.2545C27.11 87.2537 27.1149 87.2525 27.1154 87.2524C27.1196 87.2514 27.1142 87.2527 27.1062 87.2543C27.0973 87.2559 27.0809 87.2587 27.0597 87.26L26.9958 86.2621ZM26.9271 86.2738C26.549 86.306 26.1478 86.4477 25.8288 86.7653L26.5343 87.474C26.6539 87.3548 26.8176 87.2868 27.012 87.2702L26.9271 86.2738ZM25.8297 86.7643L22.2322 90.3263L22.9358 91.0369L26.5333 87.4749L25.8297 86.7643ZM22.232 90.3265C21.5387 91.0136 21.5387 92.1302 22.232 92.8172L22.9359 92.1068C22.6374 91.8111 22.6374 91.3326 22.9359 91.0368L22.232 90.3265ZM22.2324 92.8175C22.9239 93.5015 24.0432 93.502 24.7342 92.8172L24.0303 92.1069C23.7295 92.405 23.2378 92.4055 22.9356 92.1065L22.2324 92.8175ZM66.5223 127.722L2.47807 127.722L2.47807 128.722L66.5223 128.722V127.722ZM2.97807 128.222L2.97807 64.8107H1.97807L1.97807 128.222H2.97807ZM2.47807 65.3107L25.8787 65.3107V64.3107L2.47807 64.3107L2.47807 65.3107ZM25.3787 64.8107L25.3787 78.1358H26.3787L26.3787 64.8107L25.3787 64.8107ZM25.3792 78.1147C25.3687 78.362 25.4049 78.6208 25.51 78.8709L26.4319 78.4836C26.3914 78.3872 26.3732 78.2778 26.3783 78.1569L25.3792 78.1147ZM25.5081 78.8665C25.6858 79.3009 26.0306 79.6425 26.4676 79.8171L26.8387 78.8885C26.6526 78.8142 26.5084 78.6706 26.4337 78.488L25.5081 78.8665ZM26.461 79.8144C27.1039 80.082 27.8757 79.9628 28.4053 79.4386L27.7018 78.7279C27.4725 78.9549 27.1341 79.0114 26.8453 78.8912L26.461 79.8144ZM28.4054 79.4385L31.1431 76.7277L30.4395 76.0171L27.7018 78.7279L28.4054 79.4385ZM30.4395 76.7278L36.8767 83.0995L37.5802 82.3887L31.143 76.0171L30.4395 76.7278ZM36.8765 83.0992C37.2475 83.467 37.7341 83.6221 38.1999 83.6021L38.1572 82.603C37.9398 82.6124 37.7334 82.5406 37.5804 82.389L36.8765 83.0992ZM38.1575 83.6021C38.6282 83.622 39.1158 83.4656 39.4892 83.0978L38.7875 82.3854C38.631 82.5396 38.4218 82.6124 38.1996 82.603L38.1575 83.6021ZM39.4901 83.0969L43.109 79.5142L42.4055 78.8035L38.7866 82.3863L39.4901 83.0969ZM43.1095 79.5138C43.4817 79.1444 43.6407 78.6583 43.6207 78.1889L42.6216 78.2314C42.6308 78.4473 42.5589 78.6514 42.4051 78.8039L43.1095 79.5138ZM43.6212 78.2102L43.6212 64.8107L42.6212 64.8107L42.6212 78.2102L43.6212 78.2102ZM43.1212 65.3107H66.5223V64.3107H43.1212V65.3107ZM66.0223 64.8107L66.0223 128.222H67.0223L67.0223 64.8107H66.0223ZM11.5971 55.555H28.0574V54.555H11.5971V55.555ZM27.5748 54.9243L25.594 62.2411L26.5593 62.5024L28.54 55.1856L27.5748 54.9243ZM26.0766 61.8717L4.20721 61.8717V62.8717L26.0766 62.8717V61.8717ZM4.55901 62.727L11.9489 55.4103L11.2453 54.6997L3.85542 62.0164L4.55901 62.727ZM28.3418 65.3107H40.6581V64.3107H28.3418V65.3107ZM40.1581 64.8107L40.1581 77.6516H41.1581L41.1581 64.8107H40.1581ZM40.3064 77.2963L37.8171 79.7608L38.5207 80.4715L41.0099 78.0069L40.3064 77.2963ZM38.5207 79.7609L32.0855 73.388L31.3818 74.0985L37.817 80.4714L38.5207 79.7609ZM32.0864 73.3889C31.9052 73.2085 31.6965 73.0837 31.4858 73.0003L31.1177 73.9301C31.2215 73.9712 31.3097 74.0267 31.3808 74.0976L32.0864 73.3889ZM31.5114 73.0113C30.8623 72.7116 30.0605 72.8097 29.5106 73.3518L30.2126 74.0639C30.4468 73.8331 30.796 73.7824 31.0921 73.9192L31.5114 73.0113ZM29.5098 73.3526L27.99 74.8574L28.6936 75.568L30.2134 74.0631L29.5098 73.3526ZM28.8418 75.2127L28.8418 64.8107H27.8418L27.8418 75.2127H28.8418ZM30.6069 55.555L38.4523 55.555V54.555L30.6069 54.555V55.555ZM37.9683 55.1806L39.8685 62.4974L40.8364 62.246L38.9362 54.9293L37.9683 55.1806ZM40.3525 61.8717L28.6262 61.8717V62.8717L40.3525 62.8717V61.8717ZM29.1088 62.5024L31.0895 55.1856L30.1243 54.9243L28.1435 62.2411L29.1088 62.5024ZM57.1184 55.4145L64.691 62.7313L65.3859 62.0121L57.8132 54.6954L57.1184 55.4145ZM65.0384 61.8717H42.864V62.8717H65.0384V61.8717ZM43.3479 62.246L41.4477 54.9293L40.4798 55.1806L42.38 62.4974L43.3479 62.246ZM40.9638 55.555H57.4658V54.555H40.9638V55.555ZM68.9795 62.1424L59.1243 52.6209L58.4295 53.3401L68.2847 62.8615L68.9795 62.1424ZM59.0979 52.5971C59.1043 52.6025 59.1105 52.608 59.1162 52.6134C59.1219 52.6187 59.1262 52.6232 59.1287 52.6257C59.1298 52.6268 59.1306 52.6277 59.1307 52.6277C59.1307 52.6277 59.1306 52.6277 59.1304 52.6274C59.1302 52.6272 59.1298 52.6268 59.1293 52.6263C59.1274 52.6243 59.1231 52.6198 59.1177 52.6144L58.4089 53.3198C58.406 53.3168 58.4039 53.3146 58.4041 53.3148C58.4041 53.3149 58.4042 53.3149 58.4045 53.3153C58.4048 53.3156 58.4053 53.3161 58.4058 53.3166C58.4069 53.3178 58.4087 53.3196 58.4108 53.3219C58.4211 53.3325 58.4361 53.3473 58.4559 53.3638L59.0979 52.5971ZM59.1066 52.6036L59.095 52.5926L58.4084 53.3196L58.42 53.3306L59.1066 52.6036ZM59.0962 52.5937C59.0294 52.5302 58.9616 52.4927 58.9342 52.4776C58.9119 52.4653 58.9167 52.4682 58.9086 52.4636C58.9064 52.4623 58.9133 52.4661 58.9239 52.4738L58.3388 53.2847C58.3688 53.3063 58.396 53.3225 58.4144 53.3329C58.4237 53.3382 58.4321 53.3428 58.438 53.346C58.445 53.3498 58.4475 53.3512 58.451 53.3531C58.4571 53.3565 58.4533 53.3546 58.446 53.3497C58.4379 53.3443 58.4236 53.3341 58.4072 53.3185L59.0962 52.5937ZM58.9331 52.4805C58.8647 52.4288 58.7284 52.3185 58.5587 52.2474L58.1722 53.1696C58.2004 53.1815 58.2272 53.2004 58.3296 53.2779L58.9331 52.4805ZM58.5537 52.2453C58.3271 52.1532 58.0884 52.1108 57.849 52.116L57.8706 53.1157C57.9767 53.1135 58.0796 53.1321 58.1772 53.1717L58.5537 52.2453ZM57.8598 52.1159L11.142 52.1159V53.1159L57.8598 53.1159V52.1159ZM11.1562 52.1161C10.9149 52.1092 10.6762 52.1523 10.4503 52.2439L10.8263 53.1706C10.9245 53.1307 11.0255 53.1128 11.1278 53.1157L11.1562 52.1161ZM10.4488 52.2445C10.2113 52.3418 10.0083 52.4878 9.84187 52.6621L10.5652 53.3526C10.6434 53.2707 10.7315 53.2094 10.8278 53.17L10.4488 52.2445ZM9.85171 52.6521L0.0152418 62.393L0.718891 63.1036L10.5554 53.3626L9.85171 52.6521ZM0.0157176 62.3926C-0.326236 62.7303 -0.450159 63.0963 -0.486339 63.5063C-0.503137 63.6967 -0.501578 63.9006 -0.497264 64.1082C-0.492804 64.3227 -0.485217 64.5466 -0.485217 64.8104H0.514783C0.514783 64.5328 0.506673 64.2872 0.50252 64.0874C0.49822 63.8805 0.498251 63.725 0.509791 63.5942C0.530287 63.3619 0.582506 63.2383 0.718416 63.1041L0.0157176 62.3926ZM-0.485217 64.8104L-0.485217 128.222H0.514783L0.514783 64.8104H-0.485217ZM-0.485217 128.222C-0.485217 129.851 0.845464 131.162 2.47805 131.162V130.162C1.38864 130.162 0.514783 129.289 0.514783 128.222H-0.485217ZM2.47805 131.162L66.5223 131.162V130.162L2.47805 130.162L2.47805 131.162ZM66.5223 131.162C68.1534 131.162 69.4854 129.851 69.4854 128.222H68.4854C68.4854 129.289 67.6105 130.162 66.5223 130.162V131.162ZM69.4854 128.222L69.4854 64.8104H68.4854L68.4854 128.222H69.4854ZM69.4854 64.8104C69.4854 64.7017 69.4602 64.5347 69.4596 64.5284L68.4646 64.6289C68.4795 64.7764 68.4854 64.7606 68.4854 64.8104H69.4854ZM69.4525 64.6763C69.4436 64.721 69.4297 64.7543 69.4217 64.7716C69.4179 64.7798 69.4149 64.7856 69.4146 64.786C69.4146 64.7862 69.4145 64.7863 69.4154 64.7845C69.4161 64.7832 69.4176 64.7803 69.4193 64.777C69.4334 64.7499 69.4854 64.6508 69.4854 64.5129H68.4854C68.4854 64.4872 68.4876 64.4622 68.4917 64.4383C68.4958 64.4145 68.5014 64.3935 68.5072 64.3756C68.513 64.358 68.5189 64.3438 68.5233 64.334C68.5275 64.3246 68.531 64.3178 68.5318 64.3164C68.5322 64.3156 68.5324 64.3153 68.5317 64.3165C68.5313 64.3172 68.53 64.3198 68.5286 64.3224C68.5257 64.3279 68.5201 64.3387 68.5139 64.3522C68.501 64.38 68.483 64.4242 68.4717 64.4811L69.4525 64.6763ZM69.4854 64.5129C69.4854 64.2559 69.4929 64.0382 69.4974 63.8286C69.5016 63.6261 69.5032 63.4261 69.4861 63.2389C69.4492 62.8336 69.3228 62.4731 68.979 62.1419L68.2852 62.862C68.4199 62.9918 68.4701 63.1087 68.4902 63.3296C68.5017 63.4556 68.5018 63.6059 68.4976 63.8075C68.4935 64.0018 68.4854 64.2419 68.4854 64.5129H69.4854Z" fill="white" mask="url(#path-6-inside-1)"/>
</g>
<path fill-rule="evenodd" clip-rule="evenodd" d="M11.5 54.6101H57.5322L67 63.6101L2.5 63.1101L11.5 54.6101Z" fill="#E4E4E4"/>
<path d="M7.5 56.6101L11.1499 54.7908V63.7495H6.67053L7.5 56.6101Z" fill="#2B3038"/>
<path d="M55.9436 54.1101L60 55.1101L60.423 63.7495H55.9436V54.1101Z" fill="#2B3038"/>
</svg>
