<svg width="114" height="106" viewBox="0 0 114 106" fill="none" xmlns="http://www.w3.org/2000/svg">
<g clip-path="url(#clip0)">
<path d="M78.375 105.094C77.8763 105.094 77.4844 104.702 77.4844 104.203V86.8359C77.4844 83.6653 75.6141 80.7974 72.7284 79.5149L62.6287 75.0262C61.2394 76.6828 59.1909 77.6624 57 77.6624C54.8091 77.6624 52.7606 76.6828 51.3713 75.0084L41.2716 79.5149C38.3859 80.7974 36.5156 83.6831 36.5156 86.8359V104.203C36.5156 104.702 36.1237 105.094 35.625 105.094C35.1262 105.094 34.7344 104.702 34.7344 104.203V86.8359C34.7344 82.9706 37.0144 79.4615 40.5413 77.894L51.3 73.1024C51.7275 72.9065 52.2441 73.0846 52.4578 73.5121C53.4553 74.9906 55.1297 75.8812 57 75.8812C58.8703 75.8812 60.5447 74.9906 61.5956 73.4409C61.845 73.0846 62.3081 72.9421 62.7 73.1203L73.4409 77.894C76.9678 79.4615 79.2656 82.9706 79.2656 86.8537V104.221C79.2656 104.702 78.8737 105.094 78.375 105.094Z" fill="#28313B"/>
<path d="M57 73.0312C48.6459 73.0312 41.8594 66.2447 41.8594 57.8906C41.8594 49.5366 48.6459 42.75 57 42.75C65.3541 42.75 72.1406 49.5366 72.1406 57.8906C72.1406 66.2447 65.3541 73.0312 57 73.0312ZM57 44.5312C49.6256 44.5312 43.6406 50.5163 43.6406 57.8906C43.6406 65.265 49.6256 71.25 57 71.25C64.3744 71.25 70.3594 65.265 70.3594 57.8906C70.3594 50.5163 64.3744 44.5312 57 44.5312Z" fill="#28313B"/>
<path d="M44.0859 58.7813H42.75C42.2513 58.7813 41.8594 58.3894 41.8594 57.8906C41.8594 49.5366 48.6459 42.75 57 42.75C61.5066 42.75 65.7459 44.745 68.6316 48.2006C68.7741 48.3788 68.8631 48.6103 68.8275 48.8597C68.8097 49.0913 68.685 49.305 68.5069 49.4653L67.4381 50.3559C60.9009 55.7709 52.6181 58.7813 44.0859 58.7813ZM43.6763 57H44.1038C52.2084 57 60.0994 54.15 66.3159 48.9666L66.6722 48.6816C64.1428 46.0275 60.6694 44.5313 57 44.5313C49.9284 44.5313 44.1216 50.0353 43.6763 57Z" fill="#28313B"/>
<path d="M44.5312 105.094C44.0325 105.094 43.6406 104.702 43.6406 104.203V91.7344C43.6406 91.2356 44.0325 90.8438 44.5312 90.8438C45.03 90.8438 45.4219 91.2356 45.4219 91.7344V104.203C45.4219 104.702 45.03 105.094 44.5312 105.094Z" fill="#28313B"/>
<path d="M69.4688 105.094C68.97 105.094 68.5781 104.702 68.5781 104.203V91.7344C68.5781 91.2356 68.97 90.8438 69.4688 90.8438C69.9675 90.8438 70.3594 91.2356 70.3594 91.7344V104.203C70.3594 104.702 69.9675 105.094 69.4688 105.094Z" fill="#28313B"/>
<path d="M57 77.6625C54.5419 77.6625 52.2797 76.4512 50.9081 74.4206C50.8012 74.2781 50.7478 74.1 50.7478 73.9219V71.1075C50.7478 70.5019 51.4247 70.0566 51.9947 70.2881C55.2009 71.5884 58.7991 71.5706 62.0053 70.2881C62.2725 70.1812 62.5931 70.2169 62.8425 70.3772C63.0919 70.5375 63.2344 70.8225 63.2344 71.1253V73.9575C63.2344 74.1356 63.1809 74.3137 63.0919 74.4562C61.7203 76.4512 59.4403 77.6625 57 77.6625ZM52.5469 73.6191C53.5978 75.0441 55.2187 75.8634 57 75.8634C58.7812 75.8634 60.3844 75.0619 61.4531 73.6369V72.3366C58.5675 73.2272 55.4325 73.2272 52.5469 72.3366V73.6191Z" fill="#28313B"/>
<path d="M108.656 90.8438H106.875C106.376 90.8438 105.984 90.4519 105.984 89.9531C105.984 89.4544 106.376 89.0625 106.875 89.0625H108.656C109.155 89.0625 109.547 89.4544 109.547 89.9531C109.547 90.4519 109.155 90.8438 108.656 90.8438Z" fill="#28313B"/>
<path d="M103.312 90.8438H83.7188C83.22 90.8438 82.8281 90.4519 82.8281 89.9531C82.8281 89.4544 83.22 89.0625 83.7188 89.0625H103.312C103.811 89.0625 104.203 89.4544 104.203 89.9531C104.203 90.4519 103.811 90.8438 103.312 90.8438Z" fill="#28313B"/>
<path d="M7.125 90.8438H5.34375C4.845 90.8438 4.45312 90.4519 4.45312 89.9531C4.45312 89.4544 4.845 89.0625 5.34375 89.0625H7.125C7.62375 89.0625 8.01562 89.4544 8.01562 89.9531C8.01562 90.4519 7.62375 90.8438 7.125 90.8438Z" fill="#28313B"/>
<path d="M30.2812 90.8438H10.6875C10.1887 90.8438 9.79688 90.4519 9.79688 89.9531C9.79688 89.4544 10.1887 89.0625 10.6875 89.0625H30.2812C30.78 89.0625 31.1719 89.4544 31.1719 89.9531C31.1719 90.4519 30.78 90.8438 30.2812 90.8438Z" fill="#28313B"/>
<path d="M78.2656 11.0156C77.7669 11.0156 77.375 10.6238 77.375 10.125V5.67188C77.375 5.17313 76.9831 4.78125 76.4844 4.78125H66.8906C66.3919 4.78125 66 4.38937 66 3.89062C66 3.39187 66.3919 3 66.8906 3H76.4844C77.9628 3 79.1562 4.19344 79.1562 5.67188V10.125C79.1562 10.6059 78.7644 11.0156 78.2656 11.0156Z" fill="#28313B"/>
<path d="M39.8906 30C40.3894 30 40.7812 30.3919 40.7812 30.8906V35.3438C40.7812 35.8425 41.1731 36.2344 41.6719 36.2344H51.2656C51.7644 36.2344 52.1562 36.6263 52.1562 37.125C52.1562 37.6238 51.7644 38.0156 51.2656 38.0156H41.6719C40.1934 38.0156 39 36.8222 39 35.3438V30.8906C39 30.4097 39.3919 30 39.8906 30Z" fill="#28313B"/>
<path d="M61.5593 23.0395C61.5593 23.9696 61.1899 24.8615 60.5323 25.5191C59.8747 26.1767 58.9827 26.5461 58.0527 26.5461H37.0132L30 33.5593V5.50659C30 4.57659 30.3694 3.68467 31.0271 3.02706C31.6847 2.36944 32.5766 2 33.5066 2H58.0527C58.9827 2 59.8747 2.36944 60.5323 3.02706C61.1899 3.68467 61.5593 4.57659 61.5593 5.50659V23.0395Z" fill="#FFEEAD" stroke="#28313B" stroke-width="2" stroke-linecap="round" stroke-linejoin="round"/>
<path d="M54.4052 7.03057V9.19057H52.1852V21.8306H49.6052V16.0906L47.2652 16.0706C47.3052 16.3239 47.3252 16.5706 47.3252 16.8106C47.3252 17.9839 46.9518 18.9239 46.2052 19.6306C45.4585 20.3372 44.4652 20.6906 43.2252 20.6906C42.3185 20.6906 41.5118 20.5172 40.8052 20.1706C40.1118 19.8239 39.5718 19.3372 39.1852 18.7106C38.7985 18.0706 38.6052 17.3439 38.6052 16.5306H41.0252C41.0252 17.0906 41.2118 17.5572 41.5852 17.9306C41.9585 18.2906 42.4452 18.4706 43.0452 18.4706C43.6452 18.4706 44.1185 18.2972 44.4652 17.9506C44.8118 17.5906 44.9852 17.1306 44.9852 16.5706C44.9852 16.0239 44.7985 15.5639 44.4252 15.1906C44.0518 14.8039 43.4985 14.6106 42.7652 14.6106H41.9052V12.5306H42.7652C43.4052 12.5306 43.9052 12.3639 44.2652 12.0306C44.6252 11.6972 44.8052 11.2906 44.8052 10.8106C44.8052 10.2772 44.6318 9.85057 44.2852 9.53057C43.9518 9.19723 43.5318 9.03057 43.0252 9.03057C42.4785 9.03057 42.0252 9.19057 41.6652 9.51057C41.3052 9.83057 41.1252 10.2439 41.1252 10.7506H38.7452C38.7452 9.97723 38.9252 9.29723 39.2852 8.71057C39.6452 8.11057 40.1452 7.65057 40.7852 7.33057C41.4385 7.01057 42.1852 6.85057 43.0252 6.85057C44.2518 6.85057 45.2385 7.17723 45.9852 7.83057C46.7318 8.4839 47.1052 9.35723 47.1052 10.4506C47.1052 11.1839 46.9118 11.8239 46.5252 12.3706C46.1385 12.9039 45.5918 13.2772 44.8852 13.4906V13.5306C45.2318 13.5972 45.5652 13.7372 45.8852 13.9506H49.6052V7.03057H54.4052Z" fill="#28313B"/>
<path d="M57 36.0395C57 36.9696 57.3694 37.8615 58.0271 38.5191C58.6847 39.1767 59.5766 39.5461 60.5066 39.5461H81.5461L88.5593 46.5593V18.5066C88.5593 17.5766 88.1899 16.6847 87.5323 16.0271C86.8747 15.3694 85.9827 15 85.0527 15H60.5066C59.5766 15 58.6847 15.3694 58.0271 16.0271C57.3694 16.6847 57 17.5766 57 18.5066V36.0395Z" fill="#96CEB4" stroke="#28313B" stroke-width="2" stroke-linecap="round" stroke-linejoin="round"/>
<path d="M76.0755 32.34H70.5155L69.5955 35H66.6555L71.6755 21.02H74.9355L79.9555 35H76.9955L76.0755 32.34ZM75.3155 30.1L73.2955 24.26L71.2755 30.1H75.3155Z" fill="#28313B"/>
</g>
<defs>
<clipPath id="clip0">
<rect width="114" height="105.094" fill="white"/>
</clipPath>
</defs>
</svg>
