<svg width="157" height="133" viewBox="0 0 157 133" fill="none" xmlns="http://www.w3.org/2000/svg">
<rect opacity="0.2" x="36.9194" width="120" height="119" rx="26" transform="rotate(1.40574 36.9194 0)" fill="#FBCECD"/>
<g clip-path="url(#clip0)">
<path d="M107.182 52H9V104.364H107.182V52Z" fill="#FBCECD"/>
<path d="M65.927 71.5688L65.9269 71.5688L65.9263 71.5638C65.8475 70.9695 65.3433 70.5286 64.7506 70.5286H51.219C50.6255 70.5286 50.1209 70.9706 50.0429 71.5657L50.043 71.5657L50.0423 71.5706L47.6027 89.0647C47.6026 89.0653 47.6025 89.0659 47.6024 89.0666C47.5801 89.2459 47.7193 89.4 47.8932 89.4H68.1067C68.2809 89.4 68.4202 89.2457 68.3975 89.066C68.3974 89.0654 68.3973 89.0647 68.3973 89.0641L65.927 71.5688Z" fill="white" stroke="#263238" stroke-width="1.2"/>
<path fill-rule="evenodd" clip-rule="evenodd" d="M63.5 70.9789C63.5 68.2291 61.0376 66 58 66C54.9624 66 52.5 68.2291 52.5 70.9789V72.4942C52.5 72.813 52.7854 73.0714 53.1376 73.0714C53.4898 73.0714 53.7754 72.813 53.7754 72.4942V70.9789C53.7754 68.8667 55.6668 67.1545 58 67.1545C60.3332 67.1545 62.2246 68.8667 62.2246 70.9789V72.4942C62.2246 72.813 62.5102 73.0714 62.8624 73.0714C63.2146 73.0714 63.5 72.813 63.5 72.4942V70.9789Z" fill="#263238"/>
<path d="M48.2727 122.782C47.7818 122.782 47.4545 122.455 47.4545 121.964V116.236C47.4545 115.745 47.7818 115.418 48.2727 115.418C48.7636 115.418 49.0909 115.745 49.0909 116.236V121.964C49.0909 122.291 48.7636 122.782 48.2727 122.782Z" fill="#263238"/>
<path d="M67.9091 122.782C67.4182 122.782 67.0909 122.455 67.0909 121.964V116.236C67.0909 115.745 67.4182 115.418 67.9091 115.418C68.4 115.418 68.7273 115.745 68.7273 116.236V121.964C68.7273 122.291 68.4 122.782 67.9091 122.782Z" fill="#263238"/>
<path d="M74.4545 132.6H41.7273C40.4182 132.6 39.2727 131.455 39.2727 130.145V126.873C39.2727 125.564 40.4182 124.418 41.7273 124.418H74.4545C75.7636 124.418 76.9091 125.564 76.9091 126.873V130.145C76.9091 131.455 75.9272 132.6 74.4545 132.6ZM41.7273 126.055C41.2363 126.055 40.9091 126.382 40.9091 126.873V130.145C40.9091 130.636 41.2363 130.964 41.7273 130.964H74.4545C74.9454 130.964 75.2727 130.636 75.2727 130.145V126.873C75.2727 126.382 74.9454 126.055 74.4545 126.055H41.7273Z" fill="#263238"/>
<path d="M107.182 105.6H9.00001C8.5091 105.6 8.18182 105.273 8.18182 104.782C8.18182 104.291 8.5091 103.964 9.00001 103.964H107.182C107.673 103.964 108 104.291 108 104.782C108 105.273 107.673 105.6 107.182 105.6Z" fill="#263238"/>
<path d="M25.3636 53.2363H9.00001C8.67273 53.2363 8.18182 52.7454 8.18182 52.4182C8.18182 52.0909 8.5091 51.6 9.00001 51.6H25.3636C25.8546 51.6 26.1818 51.9272 26.1818 52.4182C26.1818 52.9091 25.8546 53.2363 25.3636 53.2363Z" fill="#263238"/>
<path d="M107.182 53.2363H90.8182C90.3273 53.2363 90 52.9091 90 52.4182C90 51.9272 90.3273 51.6 90.8182 51.6H107.182C107.673 51.6 108 51.9272 108 52.4182C108 52.9091 107.673 53.2363 107.182 53.2363Z" fill="#263238"/>
<path d="M99 113.782H17.1818C12.2727 113.782 8.18182 109.691 8.18182 104.782V52.4182C8.18182 47.5091 12.2727 43.4182 17.1818 43.4182H90.8182C91.3091 43.4182 91.6364 43.7455 91.6364 44.2364C91.6364 44.7273 91.3091 45.0546 90.8182 45.0546H17.1818C13.2546 45.0546 9.81819 48.3273 9.81819 52.4182V104.782C9.81819 108.873 13.0909 112.145 17.1818 112.145H99C103.091 112.145 106.364 108.873 106.364 104.782V52.4182C106.364 48.3273 103.091 45.0546 99 45.0546H90.8182C90.3273 45.0546 90 44.7273 90 44.2364C90 43.7455 90.3273 43.4182 90.8182 43.4182H99C103.909 43.4182 108 47.5091 108 52.4182V104.782C108 109.691 104.073 113.782 99 113.782Z" fill="#263238"/>
<path d="M102.273 66.3272C101.782 66.3272 101.455 65.9999 101.455 65.509V58.1454H94.0909C93.6 58.1454 93.2727 57.8181 93.2727 57.3272C93.2727 56.8363 93.6 56.509 94.0909 56.509H102.273C102.764 56.509 103.091 56.8363 103.091 57.3272V65.509C103.091 65.8363 102.764 66.3272 102.273 66.3272Z" fill="#263238"/>
<path d="M41.0908 131.655H4.59993C2.96357 131.655 1.65448 130.346 1.65448 128.709V63.7455C1.65448 61.6182 3.45448 59.8182 5.58175 59.8182H40.4363C42.3999 59.8182 44.0363 61.4546 44.0363 63.4182V128.382C44.1999 130.182 42.8908 131.655 41.0908 131.655Z" fill="white"/>
<path d="M40.2727 132.636H5.90909C3.12727 132.636 1 130.509 1 127.727V63.9091C1 61.1273 3.12727 59 5.90909 59H40.2727C43.0545 59 45.1818 61.1273 45.1818 63.9091V127.727C45.1818 130.509 43.0545 132.636 40.2727 132.636ZM5.90909 60.6364C4.10909 60.6364 2.63636 62.1091 2.63636 63.9091V127.727C2.63636 129.527 4.10909 131 5.90909 131H40.2727C42.0727 131 43.5455 129.527 43.5455 127.727V63.9091C43.5455 62.1091 42.0727 60.6364 40.2727 60.6364H5.90909Z" fill="#263238"/>
<path d="M44.3636 71.6364H1.81818C1.32727 71.6364 1 71.3091 1 70.8182C1 70.3273 1.32727 70 1.81818 70H44.3636C44.8545 70 45.1818 70.3273 45.1818 70.8182C45.1818 71.3091 44.8545 71.6364 44.3636 71.6364Z" fill="#263238"/>
<path d="M19.8182 78.6365H6.72729V91.7274H19.8182V78.6365Z" fill="#FBCECD"/>
<path d="M19.8182 92.5455H6.7273C6.23639 92.5455 5.90912 92.2182 5.90912 91.7273V78.6364C5.90912 78.1455 6.23639 77.8182 6.7273 77.8182H19.8182C20.3091 77.8182 20.6364 78.1455 20.6364 78.6364V91.7273C20.6364 92.2182 20.3091 92.5455 19.8182 92.5455ZM7.54548 90.9091H19V79.4546H7.54548V90.9091Z" fill="#263238"/>
<path d="M39.4546 78.6365H26.3636V91.7274H39.4546V78.6365Z" fill="#FBCECD"/>
<path d="M39.4546 92.5455H26.3637C25.8727 92.5455 25.5455 92.2182 25.5455 91.7273V78.6364C25.5455 78.1455 25.8727 77.8182 26.3637 77.8182H39.4546C39.9455 77.8182 40.2727 78.1455 40.2727 78.6364V91.7273C40.2727 92.2182 39.9455 92.5455 39.4546 92.5455ZM27.1818 90.9091H38.6364V79.4546H27.1818V90.9091Z" fill="#263238"/>
<path d="M19.8182 96.6365H6.72729V109.727H19.8182V96.6365Z" fill="#FBCECD"/>
<path d="M19.8182 110.546H6.7273C6.23639 110.546 5.90912 110.218 5.90912 109.727V96.6364C5.90912 96.1455 6.23639 95.8182 6.7273 95.8182H19.8182C20.3091 95.8182 20.6364 96.1455 20.6364 96.6364V109.727C20.6364 110.218 20.3091 110.546 19.8182 110.546ZM7.54548 108.909H19V97.4546H7.54548V108.909Z" fill="#263238"/>
<path d="M39.4546 96.6365H26.3636V109.727H39.4546V96.6365Z" fill="#FBCECD"/>
<path d="M39.4546 110.546H26.3637C25.8727 110.546 25.5455 110.218 25.5455 109.727V96.6364C25.5455 96.1455 25.8727 95.8182 26.3637 95.8182H39.4546C39.9455 95.8182 40.2727 96.1455 40.2727 96.6364V109.727C40.2727 110.218 39.9455 110.546 39.4546 110.546ZM27.1818 108.909H38.6364V97.4546H27.1818V108.909Z" fill="#263238"/>
<path d="M14.9091 123.636H6.7273C6.23639 123.636 5.90912 123.309 5.90912 122.818V114.636C5.90912 114.146 6.23639 113.818 6.7273 113.818H14.9091C15.4 113.818 15.7273 114.146 15.7273 114.636V122.818C15.7273 123.309 15.4 123.636 14.9091 123.636ZM7.54548 122H14.0909V115.455H7.54548V122Z" fill="#263238"/>
<path d="M39.4545 123.636H31.2727C30.7818 123.636 30.4545 123.309 30.4545 122.818V114.636C30.4545 114.146 30.7818 113.818 31.2727 113.818H39.4545C39.9454 113.818 40.2727 114.146 40.2727 114.636V122.818C40.2727 123.309 39.9454 123.636 39.4545 123.636ZM32.0909 122H38.6363V115.455H32.0909V122Z" fill="#263238"/>
<path d="M27.1818 123.636H19C18.5091 123.636 18.1818 123.309 18.1818 122.818V114.636C18.1818 114.146 18.5091 113.818 19 113.818H27.1818C27.6727 113.818 28 114.146 28 114.636V122.818C28 123.309 27.6727 123.636 27.1818 123.636ZM19.8182 122H26.3636V115.455H19.8182V122Z" fill="#263238"/>
<path d="M23.0909 66.3637H6.7273C6.23639 66.3637 5.90912 66.0364 5.90912 65.5455C5.90912 65.0546 6.23639 64.7273 6.7273 64.7273H23.0909C23.5818 64.7273 23.9091 65.0546 23.9091 65.5455C23.9091 66.0364 23.5818 66.3637 23.0909 66.3637Z" fill="#263238"/>
</g>
<defs>
<clipPath id="clip0">
<rect width="108" height="92.6182" fill="white" transform="translate(0 39.9818)"/>
</clipPath>
</defs>
</svg>
