<svg width="80" height="107" viewBox="0 0 80 107" fill="none" xmlns="http://www.w3.org/2000/svg">
<path d="M66.0254 53.1192L39.6152 37.8894" stroke="#28313B" stroke-width="1.5" stroke-linecap="round" stroke-linejoin="round"/>
<path d="M79.2302 72.4866V49.0109C79.2291 47.9817 78.9574 46.9709 78.4424 46.0798C77.9273 45.1888 77.187 44.4489 76.2957 43.9343L55.7545 32.1964C54.8623 31.6813 53.8503 31.4102 52.82 31.4102C51.7898 31.4102 50.7778 31.6813 49.8856 32.1964L29.3444 43.9343C28.4531 44.4489 27.7128 45.1888 27.1977 46.0798C26.6826 46.9709 26.411 47.9817 26.4099 49.0109V72.4866C26.411 73.5158 26.6826 74.5266 27.1977 75.4176C27.7128 76.3087 28.4531 77.0486 29.3444 77.5632L49.8856 89.301C50.7778 89.8161 51.7898 90.0873 52.82 90.0873C53.8503 90.0873 54.8623 89.8161 55.7545 89.301L76.2957 77.5632C77.187 77.0486 77.9273 76.3087 78.4424 75.4176C78.9574 74.5266 79.2291 73.5158 79.2302 72.4866Z" fill="white" stroke="#28313B" stroke-width="1.5" stroke-linecap="round" stroke-linejoin="round"/>
<path d="M27.2021 45.9595L52.82 60.7785L78.4378 45.9595" stroke="#28313B" stroke-width="1.5" stroke-linecap="round" stroke-linejoin="round"/>
<path d="M52.8206 90.3279V60.7485" stroke="#28313B" stroke-width="1.5" stroke-linecap="round" stroke-linejoin="round"/>
<path d="M53.8203 88.1584V64.6828C53.8192 63.6536 53.5475 62.6428 53.0325 61.7517C52.5174 60.8607 51.7771 60.1207 50.8858 59.6062L30.3446 47.8683C29.4524 47.3532 28.4403 47.082 27.4101 47.082C26.3799 47.082 25.3679 47.3532 24.4757 47.8683L3.93446 59.6062C3.04315 60.1207 2.30284 60.8607 1.78779 61.7517C1.27274 62.6428 1.00106 63.6536 1 64.6828V88.1584C1.00106 89.1876 1.27274 90.1984 1.78779 91.0895C2.30284 91.9805 3.04315 92.7205 3.93446 93.2351L24.4757 104.973C25.3679 105.488 26.3799 105.759 27.4101 105.759C28.4403 105.759 29.4524 105.488 30.3446 104.973L50.8858 93.2351C51.7771 92.7205 52.5174 91.9805 53.0325 91.0895C53.5475 90.1984 53.8192 89.1876 53.8203 88.1584Z" fill="white" stroke="#28313B" stroke-width="1.5" stroke-linecap="round" stroke-linejoin="round"/>
<path d="M40.6155 68.7911L14.2053 53.5613" stroke="#28313B" stroke-width="1.5" stroke-linecap="round" stroke-linejoin="round"/>
<path d="M27 76.0001L2 61.5001C1.6 61.2681 1.16667 62.7368 1 63.5001V86.0001C1 88.0001 1.66667 90.8335 2 92.0001L27.5 106L27 76.0001Z" fill="#40C4FF"/>
<path d="M1.78779 61.752C1.27274 62.643 1.00106 63.6538 1 64.683V88.1587C1.00106 89.1879 1.27274 90.1987 1.78779 91.0897C2.30284 91.9808 3.04315 92.7207 3.93446 93.2353L24.4757 104.973C25.3679 105.488 26.3799 105.759 27.4101 105.759" stroke="#28313B" stroke-width="1.5" stroke-linecap="round" stroke-linejoin="round"/>
<path d="M27.0139 105L27.4099 76.4209" stroke="#28313B" stroke-width="1.5" stroke-linecap="round" stroke-linejoin="round"/>
<path d="M1.79236 61.6318L27.4102 76.4509L53.028 61.6318" stroke="#28313B" stroke-width="1.5" stroke-linecap="round" stroke-linejoin="round"/>
<path d="M78.8203 42.0764V18.6007C78.8192 17.5715 78.5475 16.5607 78.0325 15.6697C77.5174 14.7786 76.7771 14.0387 75.8858 13.5241L55.3446 1.78629C54.4524 1.27118 53.4403 1 52.4101 1C51.3799 1 50.3679 1.27118 49.4757 1.78629L28.9345 13.5241C28.0432 14.0387 27.3028 14.7786 26.7878 15.6697C26.2727 16.5607 26.0011 17.5715 26 18.6007V42.0764C26.0011 43.1056 26.2727 44.1164 26.7878 45.0075C27.3028 45.8985 28.0432 46.6384 28.9345 47.153L49.4757 58.8909C50.3679 59.406 51.3799 59.6772 52.4101 59.6772C53.4403 59.6772 54.4524 59.406 55.3446 58.8909L75.8858 47.153C76.7771 46.6384 77.5174 45.8985 78.0325 45.0075C78.5475 44.1164 78.8192 43.1056 78.8203 42.0764Z" fill="white" stroke="#28313B" stroke-width="1.5" stroke-linecap="round" stroke-linejoin="round"/>
<path d="M65.6155 22.7091L39.2053 7.47925" stroke="#28313B" stroke-width="1.5" stroke-linecap="round" stroke-linejoin="round"/>
<path d="M52 29.9181L27 15.4181C26.6 15.1861 26.1667 16.6548 26 17.4181V39.9181C26 41.9181 26.6667 44.7514 27 45.9181L52.5 59.9181L52 29.9181Z" fill="#FFD740"/>
<path d="M26.7878 15.6699C26.2727 16.561 26.0011 17.5718 26 18.601V42.0766C26.0011 43.1058 26.2727 44.1166 26.7878 45.0077C27.3028 45.8987 28.0432 46.6387 28.9345 47.1533L49.4757 58.8911C50.3679 59.4062 51.3799 59.6774 52.4101 59.6774" stroke="#28313B" stroke-width="1.5" stroke-linecap="round" stroke-linejoin="round"/>
<path d="M52.0139 58.9182L52.4099 30.3389" stroke="#28313B" stroke-width="1.5" stroke-linecap="round" stroke-linejoin="round"/>
<path d="M26.7924 15.5498L52.4102 30.3688L78.028 15.5498" stroke="#28313B" stroke-width="1.5" stroke-linecap="round" stroke-linejoin="round"/>
</svg>
