<svg width="80" height="114" viewBox="0 0 80 114" fill="none" xmlns="http://www.w3.org/2000/svg">
<g clip-path="url(#clip0)">
<path d="M73.4237 106.271H32.8475C29.6593 106.271 27.0509 103.663 27.0509 100.475V25.1186C27.0509 21.9305 29.6593 19.322 32.8475 19.322H73.4237C76.6119 19.322 79.2204 21.9305 79.2204 25.1186V100.475C79.2204 103.663 76.6119 106.271 73.4237 106.271ZM32.8475 21.2542C30.7221 21.2542 28.9831 22.9932 28.9831 25.1186V100.475C28.9831 102.6 30.7221 104.339 32.8475 104.339H73.4237C75.5492 104.339 77.2882 102.6 77.2882 100.475V25.1186C77.2882 22.9932 75.5492 21.2542 73.4237 21.2542H32.8475Z" fill="#28313B"/>
<path d="M78.2543 34.7796H28.017C27.476 34.7796 27.0509 34.3545 27.0509 33.8135C27.0509 33.2725 27.476 32.8474 28.017 32.8474H78.2543C78.7953 32.8474 79.2204 33.2725 79.2204 33.8135C79.2204 34.3545 78.7953 34.7796 78.2543 34.7796Z" fill="#28313B"/>
<path d="M53.1356 28.0169H33.8136C33.2725 28.0169 32.8475 27.5918 32.8475 27.0508C32.8475 26.5098 33.2725 26.0847 33.8136 26.0847H53.1356C53.6766 26.0847 54.1017 26.5098 54.1017 27.0508C54.1017 27.5918 53.6766 28.0169 53.1356 28.0169Z" fill="#28313B"/>
<path d="M41.5423 114H39.6101C39.0691 114 38.644 113.575 38.644 113.034C38.644 112.493 39.0691 112.068 39.6101 112.068H41.5423C42.0834 112.068 42.5084 112.493 42.5084 113.034C42.5084 113.575 42.0834 114 41.5423 114Z" fill="#28313B"/>
<path d="M66.661 114H45.4068C44.8658 114 44.4407 113.575 44.4407 113.034C44.4407 112.493 44.8658 112.068 45.4068 112.068H66.661C67.2021 112.068 67.6271 112.493 67.6271 113.034C67.6271 113.575 67.2021 114 66.661 114Z" fill="#28313B"/>
<path d="M54.0502 77.7938H54.0453C52.0453 77.7931 50.0802 77.2937 48.3348 76.3462L42 78L43.6953 71.8374C42.6496 70.0338 42.0993 67.9879 42.1002 65.8919C42.1028 59.3347 47.4635 54 54.0501 54C57.2468 54.0014 60.2472 55.2399 62.5033 57.4878C64.7594 59.7357 66.0013 62.7236 66 65.9013C65.9974 72.4569 60.6388 77.7911 54.0502 77.7938ZM48.6283 74.1932L48.991 74.4075C50.5159 75.3081 52.264 75.7846 54.0462 75.7853H54.0502C59.5246 75.7853 63.9802 71.3509 63.9823 65.9006C63.9834 63.2593 62.9513 60.7759 61.076 58.9075C59.2008 57.0391 56.707 56.0096 54.0542 56.0087C48.5756 56.0087 44.12 60.4426 44.1178 65.8926C44.117 67.7603 44.6421 69.5793 45.6364 71.153L45.8725 71.527L44.8691 75.1746L48.6283 74.1932ZM60.0705 68.7293C59.9959 68.6053 59.7968 68.531 59.4983 68.3822C59.1997 68.2334 57.7317 67.5146 57.4579 67.4154C57.1843 67.3163 56.9852 67.2667 56.7861 67.5641C56.5871 67.8616 56.0149 68.531 55.8407 68.7293C55.6665 68.9275 55.4924 68.9524 55.1939 68.8036C54.8953 68.6549 53.9332 68.3412 52.7927 67.3287C51.9051 66.5408 51.3058 65.5677 51.1316 65.2702C50.9575 64.9727 51.1131 64.8119 51.2626 64.6638C51.3969 64.5306 51.5612 64.3166 51.7104 64.1431C51.8597 63.9697 51.9095 63.8456 52.009 63.6475C52.1085 63.4491 52.0588 63.2756 51.9841 63.1268C51.9095 62.9781 51.3123 61.5154 51.0635 60.9204C50.8211 60.341 50.575 60.4195 50.3917 60.4103C50.2178 60.4016 50.0185 60.3998 49.8195 60.3998C49.6204 60.3998 49.2969 60.4742 49.0232 60.7717C48.7496 61.0692 47.9782 61.7881 47.9782 63.2506C47.9782 64.7133 49.0481 66.1263 49.1974 66.3246C49.3467 66.523 51.3029 69.5244 54.2981 70.8116C55.0105 71.1178 55.5666 71.3006 56.0003 71.4375C56.7156 71.6637 57.3665 71.6318 57.8809 71.5553C58.4546 71.47 59.6475 70.8365 59.8964 70.1424C60.1451 69.4481 60.1451 68.8532 60.0705 68.7293Z" fill="#128C7E"/>
</g>
<defs>
<clipPath id="clip0">
<rect width="79.2203" height="114" fill="white"/>
</clipPath>
</defs>
</svg>
