<svg xmlns="http://www.w3.org/2000/svg" xmlns:xlink="http://www.w3.org/1999/xlink" width="110" height="66" viewBox="0 0 110 66">
  <defs>
    <clipPath id="clip-path">
      <rect id="Rectangle_17" data-name="Rectangle 17" width="110" height="66" transform="translate(468 593)" fill="#fff" stroke="#707070" stroke-width="1"/>
    </clipPath>
  </defs>
  <g id="M_Header_Logo" transform="translate(-468 -593)" clip-path="url(#clip-path)">
    <g id="Layer_1" transform="translate(444.035 548.34)">
      <g id="Group_16" data-name="Group 16">
        <path id="Path_31" data-name="Path 31" d="M130.321,47.06h0a3.662,3.662,0,0,1,2.574,1.07h0a3.662,3.662,0,0,1,1.07,2.574h0a3.652,3.652,0,0,1-3.644,3.644h0a3.556,3.556,0,0,1-2.574-1.07,3.662,3.662,0,0,1-1.07-2.574h0a3.652,3.652,0,0,1,3.644-3.644Zm-1.668,5.529h.508V50.9h.58a1.044,1.044,0,0,1,.272.018.687.687,0,0,1,.236.109,1.1,1.1,0,0,1,.254.254c.091.127.218.29.363.526l.508.8h.634l-.653-1.033a2.4,2.4,0,0,0-.417-.508,1.146,1.146,0,0,0-.308-.181,1.417,1.417,0,0,0,.816-.344.929.929,0,0,0,.254-.689,1.078,1.078,0,0,0-.163-.58.885.885,0,0,0-.417-.363,2.161,2.161,0,0,0-.779-.109h-1.686v3.789Zm.508-2.121h1.088a1.455,1.455,0,0,0,.544-.073.545.545,0,0,0,.29-.236.6.6,0,0,0,.109-.344.618.618,0,0,0-.2-.453.96.96,0,0,0-.616-.181h-1.2v1.287Zm1.16-2.81h0a3.033,3.033,0,0,0-3.027,3.027h0a3.033,3.033,0,0,0,3.027,3.027h0a3.033,3.033,0,0,0,3.027-3.027h0a3.029,3.029,0,0,0-.888-2.139h0A3.029,3.029,0,0,0,130.321,47.658Z" fill-rule="evenodd"/>
        <g id="Group_15" data-name="Group 15">
          <path id="Path_32" data-name="Path 32" d="M32.558,48.365h91.51v8.194h8.593v43.507h-8.593v8.194H32.558v-8.194H23.965V56.559h8.593Z" fill="#fcee1e" fill-rule="evenodd"/>
          <path id="Path_33" data-name="Path 33" d="M34.661,50.522h87.3V58.7h8.611V97.927h-8.611v8.194h-87.3V97.927H26.05V58.7h8.611Z" fill="#f58220" fill-rule="evenodd"/>
          <path id="Path_34" data-name="Path 34" d="M36.945,52.861H119.68v8.194h8.611V95.57H119.68v8.194H36.945V95.57H28.334V61.055h8.611Z" fill="#eb2227" fill-rule="evenodd"/>
          <path id="Path_35" data-name="Path 35" d="M74.107,73.545a5.349,5.349,0,0,1,2.955.888c.272.616.018.979-.4,1.65a4.265,4.265,0,0,1-1.686-.054,1.372,1.372,0,0,0-.272-.018,2.241,2.241,0,0,0,0,4.459A2.025,2.025,0,0,0,76.59,79a6.326,6.326,0,0,0,.453-1.668,5.934,5.934,0,0,1,3.1-3.662V71.533H67.6v11.91h.979v1H61.653v-1h.979v-8.3H61.091c-2.411.634-4.985,3.988-.834,7.6-.018.29-.036.58-.054.852-3.1,1.722-6.073-1.5-6.2-4.3.236-3.263,1.885-5.13,4.895-5.62h3.734V71.533h-9.88v11.91h.979v1H46.824v-1H47.8v-1.9a11.947,11.947,0,0,1-3.916.906c-4.659-.145-5.475-4.641-2.393-6.961.145-.109.163-.254-.054-.326H39.573V73.672h7.378v1.486l-.761.036a1.624,1.624,0,0,0-.852.308,2.13,2.13,0,0,0-.725,2.592c.526,1.07,1.559,1.414,3.172.743V71.533H38.25V83.37h.979v1H32.3v-1h.979V71.533H30.854V70.354H33.21a2.706,2.706,0,0,1-.091-.779c0-5.293,19.542-4.949,19.632-.036a1.261,1.261,0,0,1-.435.816H79.473l-4.133-2.32-3.191,1.033-.725-1.16,2.7-1.088,1.432-.018L83.7,70.354h3.7v1.178H85.147v2.592a5.441,5.441,0,0,1,2.5,4.586,5.673,5.673,0,0,1-5.456,5.656c-3.408,0-3.354-2.52-.562-2.52a2.359,2.359,0,0,0,2.03-2.393,1.968,1.968,0,1,0-3.916-.018,6.58,6.58,0,0,1-1.432,2.991,5.42,5.42,0,1,1-4.206-8.883ZM38.25,70.354h9.662c.508-1.74-2.574-3.064-4.985-3.064-2.629-.091-4.568,1.287-4.75,2.7h.073v.363ZM115.4,69.9h4.967v.145h1.341v1.178h-1.341V83.642h-.145c.562.634.671,1.523,1.813,1.468a1.449,1.449,0,0,0,1.541-1.341c.127-2.864,2.484-1.36,2.157.308.073,1.849-1.795,3.317-4.1,3.281a5.569,5.569,0,0,1-.961-.091c-2.665-.689-2.085-2.375-3.752-2.266a1.354,1.354,0,1,0,0,2.683c1.541.018,1.6,1.94-.181,1.922-2.266,0-4.1-1.468-4.1-3.281a4,4,0,0,1,2.7-3.154l.054-2.212c0,.018-.018.054-.018.073-.653,1.668-2.665,2.592-4.967,2.592-2.828,0-5.275-1.831-5.275-4.1a3.826,3.826,0,0,1,1.758-3.082,3.557,3.557,0,0,1-1.523-2.882c0-4.314,7.6-4.858,7.215-1.559-.218,1.867-3.027,1.813-3.354-.018-1.305,1.795-.381,3.807,2.1,3.589,1.051-.091.979,1.432.489,1.5-3.5,1.36-2.538,3.97-.018,4.133,1.269.091,2.556-.943,3.607-2.1V71.188h-1.45V70.01h1.45V69.9Zm-11.6,1.632v11.91h.979v1H97.854v-1h.979V82.119a5.179,5.179,0,0,1-3.245,1.124,5.005,5.005,0,1,1,0-10.007,5.179,5.179,0,0,1,3.245,1.124v-2.81H91.546V70.372h13.487v1.178H103.8Zm-5.185,8.339a3.153,3.153,0,0,0,.2-.326v-2.52A2.348,2.348,0,0,0,96.767,75.7a.883.883,0,0,0-.218.018l2.067,4.151Zm-1.831,1-1.958-4.024a2.771,2.771,0,0,0-.417,1.45,2.475,2.475,0,0,0,2.357,2.574Zm5.366-11.8a.985.985,0,0,1-1.341-.435,3.872,3.872,0,0,1-.054-1.777c0-.254-.725-.272-.743-.091a4.755,4.755,0,0,1-.616,1.5.987.987,0,0,1-1.414.054,1.049,1.049,0,0,1,.073-1.45c.308-.326,1.106-.308,1.577-.508.29-.109.073-.725-.109-.689A3,3,0,0,1,98,65.55a1.032,1.032,0,0,1-.508-1.341,1,1,0,0,1,1.36-.417c.381.2.616.961.979,1.323.163.181.562-.036.489-.254-.145-.508-.58-1.015-.58-1.468a.958.958,0,1,1,1.9,0c0,.453-.653,1-.761,1.523-.145.236.2.6.526.489.453-.29.8-.943,1.233-1.088a1,1,0,0,1,1.287.616,1.032,1.032,0,0,1-.707,1.251c-.453.145-1.215-.4-1.722-.326a.483.483,0,0,0-.326.743c.363.417,1.088.6,1.323,1.015A1.134,1.134,0,0,1,102.151,69.067Z" fill="#fff" fill-rule="evenodd"/>
          <path id="Path_36" data-name="Path 36" d="M70.227,92.452H65.133v4.532L64.01,96.3V94.809H61.816v.6c0,.2-.181.272-.344.272-.29,0-1.994-.888-1.994-1.178s.29-.308.508-.308h.743v-1.74H57.592v4.532L56.468,96.3V92.452H55.363V91.8h1.178a1.342,1.342,0,0,1-.435-.852c0-1.215,1.867-1.378,2.737-1.378a7.668,7.668,0,0,1,3.916,1.124,7.455,7.455,0,0,1,1.486,1.124H80.2a2.321,2.321,0,0,1-.87-1.378c0-.852.725-1.106,1.468-1.106a1.993,1.993,0,0,1,1.5.58l.018.018-.218.254-.018-.018c-.145-.163-.834-.2-1.033-.2-.435,0-.943.236-.943.725a1.808,1.808,0,0,0,.743,1.124H98.869a2.193,2.193,0,0,0-2.23-1.6c-.145,0-.29.018-.417.018H96.2l-.6-.779.054-.018a2.836,2.836,0,0,1,.544-.036,3.027,3.027,0,0,1,2.484,1.106,3.311,3.311,0,0,1,.616,1.269h1.976v.653H99.486v1.2c1.722.453,1.885,1.523.453,2.592-.091.018-1.015-.073-.653-.326.381-.272,1.287-1,1.015-1.577-.29-.6-1.378-.489-1.885-.326a1.232,1.232,0,0,0-.906,1.124v.036l-.906-.308v-.018c0-.091.254-.326.308-.4l.163-.163a4.814,4.814,0,0,0-1.414-.236c-.381,0-1.088.181-1.088.653,0,.707,1.559,1.577,2.121,1.849l.054.036-.58.236H96.15c-.761-.381-2.52-1.45-2.52-2.411,0-.761,1.106-1.033,1.686-1.033a4.411,4.411,0,0,1,2.1.526c.054.018.236-.127.272-.163a1.891,1.891,0,0,1,.689-.272.584.584,0,0,1,.308.018c.054,0,.127.018.181.018l-.526-.326v-.707h-6.87v4.532L90.349,96.3V92.452H87.811v4.532L86.688,96.3V95.208a4.468,4.468,0,0,1-1.541.29c-.653,0-2.1-.58-2.1-1.341,0-.888,1.468-1.106,2.121-1.106a3.441,3.441,0,0,1,1.523.381v-.979h-5.6v1.16H78.53c-.163,0-.471,0-.471.218,0,.326.344.435.616.435a.744.744,0,0,0,.2-.018c.163-.036.326-.091.489-.127a3.668,3.668,0,0,1,.779-.091c.653,0,1.541.544,1.541,1.251,0,.562-.743.943-1.233,1.088l1.541,1.088-.689.4-1.432-1.305a5.125,5.125,0,0,1-.743.054c-.453,0-1.541-.236-1.541-.852,0-.29.363-.489.634-.489a1.8,1.8,0,0,1,1.251.508c.381-.036,1.486-.218,1.486-.707a.3.3,0,0,0-.344-.344c-.544,0-.961.218-1.5.218-.6,0-1.885-.707-1.885-1.378,0-.634.852-.671,1.305-.671H80.2v-.435h-4.75v4.532L74.324,96.3V92.452H71.315v1.16c.707.2,1.541.743,1.541,1.541,0,1.142-1.9,1.5-2.755,1.5-.979,0-2.937-.489-2.937-1.758a.736.736,0,0,1,.073-.344,1.842,1.842,0,0,1,1.07-.761,7.342,7.342,0,0,1,.906-.218,4.882,4.882,0,0,0,.508-.073c.163-.036.435-.073.435-.29v-.761ZM71.9,94.845a.955.955,0,0,0-.671-.816,5.777,5.777,0,0,0-.961.109c-.6.109-2.266.308-2.266,1.106,0,.58,1.033.743,1.468.743a3.964,3.964,0,0,0,1.7-.381c.272-.109.725-.417.725-.761Zm14.847-1a3.95,3.95,0,0,0-1.033-.145c-.435,0-1.795.163-1.795.761,0,.363.562.508.834.508a4.177,4.177,0,0,0,1.976-.58v-.544ZM63.683,91.8a7.477,7.477,0,0,0-4.369-1.65c-.689,0-2.067.073-2.067,1.033a1.166,1.166,0,0,0,.181.634h6.254Zm-1.867.653v1.7h2.212v-1.7Z" fill="#fff" fill-rule="evenodd"/>
          <path id="Path_37" data-name="Path 37" d="M36.945,52.933v.326h82.427v8.158h8.593v33.79h-8.593v8.176H37.253V95.208H28.66V61.417h8.593V52.933h-.308v0h-.326v7.849H28.008V95.842h8.611v8.176h83.388V95.842h8.611V60.783h-8.611V52.607H36.618v.326Z" fill="#fcee1e" fill-rule="evenodd"/>
        </g>
      </g>
    </g>
  </g>
</svg>
